%TF.GenerationSoftware,KiCad,Pcbnew,9.0.0*%
%TF.CreationDate,2025-03-18T12:57:55-04:00*%
%TF.ProjectId,Tarea_1_Modulo_NRF24L01,54617265-615f-4315-9f4d-6f64756c6f5f,rev?*%
%TF.SameCoordinates,Original*%
%TF.FileFunction,Copper,L1,Top*%
%TF.FilePolarity,Positive*%
%FSLAX46Y46*%
G04 Gerber Fmt 4.6, Leading zero omitted, Abs format (unit mm)*
G04 Created by KiCad (PCBNEW 9.0.0) date 2025-03-18 12:57:55*
%MOMM*%
%LPD*%
G01*
G04 APERTURE LIST*
G04 Aperture macros list*
%AMRoundRect*
0 Rectangle with rounded corners*
0 $1 Rounding radius*
0 $2 $3 $4 $5 $6 $7 $8 $9 X,Y pos of 4 corners*
0 Add a 4 corners polygon primitive as box body*
4,1,4,$2,$3,$4,$5,$6,$7,$8,$9,$2,$3,0*
0 Add four circle primitives for the rounded corners*
1,1,$1+$1,$2,$3*
1,1,$1+$1,$4,$5*
1,1,$1+$1,$6,$7*
1,1,$1+$1,$8,$9*
0 Add four rect primitives between the rounded corners*
20,1,$1+$1,$2,$3,$4,$5,0*
20,1,$1+$1,$4,$5,$6,$7,0*
20,1,$1+$1,$6,$7,$8,$9,0*
20,1,$1+$1,$8,$9,$2,$3,0*%
G04 Aperture macros list end*
%TA.AperFunction,EtchedComponent*%
%ADD10C,0.000000*%
%TD*%
%TA.AperFunction,SMDPad,CuDef*%
%ADD11RoundRect,0.140000X0.170000X-0.140000X0.170000X0.140000X-0.170000X0.140000X-0.170000X-0.140000X0*%
%TD*%
%TA.AperFunction,SMDPad,CuDef*%
%ADD12RoundRect,0.147500X0.172500X-0.147500X0.172500X0.147500X-0.172500X0.147500X-0.172500X-0.147500X0*%
%TD*%
%TA.AperFunction,ComponentPad*%
%ADD13RoundRect,0.225000X0.475000X-0.225000X0.475000X0.225000X-0.475000X0.225000X-0.475000X-0.225000X0*%
%TD*%
%TA.AperFunction,ComponentPad*%
%ADD14O,1.400000X0.900000*%
%TD*%
%TA.AperFunction,SMDPad,CuDef*%
%ADD15RoundRect,0.140000X-0.170000X0.140000X-0.170000X-0.140000X0.170000X-0.140000X0.170000X0.140000X0*%
%TD*%
%TA.AperFunction,SMDPad,CuDef*%
%ADD16R,1.000000X1.800000*%
%TD*%
%TA.AperFunction,SMDPad,CuDef*%
%ADD17RoundRect,0.147500X-0.147500X-0.172500X0.147500X-0.172500X0.147500X0.172500X-0.147500X0.172500X0*%
%TD*%
%TA.AperFunction,SMDPad,CuDef*%
%ADD18RoundRect,0.140000X0.140000X0.170000X-0.140000X0.170000X-0.140000X-0.170000X0.140000X-0.170000X0*%
%TD*%
%TA.AperFunction,ConnectorPad*%
%ADD19R,0.500000X0.500000*%
%TD*%
%TA.AperFunction,ComponentPad*%
%ADD20R,0.900000X0.500000*%
%TD*%
%TA.AperFunction,SMDPad,CuDef*%
%ADD21RoundRect,0.062500X-0.350000X-0.062500X0.350000X-0.062500X0.350000X0.062500X-0.350000X0.062500X0*%
%TD*%
%TA.AperFunction,SMDPad,CuDef*%
%ADD22RoundRect,0.062500X-0.062500X-0.350000X0.062500X-0.350000X0.062500X0.350000X-0.062500X0.350000X0*%
%TD*%
%TA.AperFunction,HeatsinkPad*%
%ADD23R,2.500000X2.500000*%
%TD*%
%TA.AperFunction,SMDPad,CuDef*%
%ADD24RoundRect,0.135000X0.185000X-0.135000X0.185000X0.135000X-0.185000X0.135000X-0.185000X-0.135000X0*%
%TD*%
%TA.AperFunction,ViaPad*%
%ADD25C,0.800000*%
%TD*%
%TA.AperFunction,ViaPad*%
%ADD26C,0.600000*%
%TD*%
%TA.AperFunction,Conductor*%
%ADD27C,0.500000*%
%TD*%
%TA.AperFunction,Conductor*%
%ADD28C,0.250000*%
%TD*%
G04 APERTURE END LIST*
D10*
%TA.AperFunction,EtchedComponent*%
%TO.C,AE1*%
G36*
X137900000Y-53215000D02*
G01*
X139900000Y-53215000D01*
X139900000Y-50575000D01*
X142600000Y-50575000D01*
X142600000Y-53215000D01*
X144600000Y-53215000D01*
X144600000Y-50575000D01*
X147300000Y-50575000D01*
X147300000Y-55015000D01*
X146800000Y-55015000D01*
X146800000Y-51075000D01*
X145100000Y-51075000D01*
X145100000Y-53715000D01*
X142100000Y-53715000D01*
X142100000Y-51075000D01*
X140400000Y-51075000D01*
X140400000Y-53715000D01*
X137400000Y-53715000D01*
X137400000Y-51075000D01*
X135700000Y-51075000D01*
X135700000Y-55975000D01*
X135200000Y-55975000D01*
X135200000Y-51075000D01*
X133800000Y-51075000D01*
X133800000Y-55975000D01*
X132900000Y-55975000D01*
X132900000Y-55731785D01*
X133202417Y-55731785D01*
X133212258Y-55779395D01*
X133236326Y-55821797D01*
X133274269Y-55854581D01*
X133282181Y-55858935D01*
X133324844Y-55871043D01*
X133373363Y-55870300D01*
X133418878Y-55857400D01*
X133437489Y-55846787D01*
X133471132Y-55811553D01*
X133491691Y-55766368D01*
X133498222Y-55716842D01*
X133489782Y-55668583D01*
X133472888Y-55636357D01*
X133437628Y-55603687D01*
X133392318Y-55583592D01*
X133342733Y-55577018D01*
X133294647Y-55584908D01*
X133261755Y-55601814D01*
X133226815Y-55638584D01*
X133207153Y-55683378D01*
X133202417Y-55731785D01*
X132900000Y-55731785D01*
X132900000Y-50575000D01*
X137900000Y-50575000D01*
X137900000Y-53215000D01*
G37*
%TD.AperFunction*%
%TD*%
D11*
%TO.P,C4,1*%
%TO.N,Net-(U1-XC2)*%
X146750000Y-66610000D03*
%TO.P,C4,2*%
%TO.N,GND*%
X146750000Y-65650000D03*
%TD*%
D12*
%TO.P,L1,1,1*%
%TO.N,Net-(U1-ANT1)*%
X145250000Y-62160000D03*
%TO.P,L1,2,2*%
%TO.N,Net-(U1-ANT2)*%
X145250000Y-61190000D03*
%TD*%
D13*
%TO.P,J1,1,Pin_1*%
%TO.N,VDD*%
X134900000Y-67750000D03*
D14*
%TO.P,J1,2,Pin_2*%
%TO.N,Net-(J1-Pin_2)*%
X134900000Y-66500000D03*
%TO.P,J1,3,Pin_3*%
%TO.N,Net-(J1-Pin_3)*%
X134900000Y-65250000D03*
%TO.P,J1,4,Pin_4*%
%TO.N,Net-(J1-Pin_4)*%
X134900000Y-64000000D03*
%TO.P,J1,5,Pin_5*%
%TO.N,Net-(J1-Pin_5)*%
X134900000Y-62750000D03*
%TO.P,J1,6,Pin_6*%
%TO.N,Net-(J1-Pin_6)*%
X134900000Y-61500000D03*
%TO.P,J1,7,Pin_7*%
%TO.N,Net-(J1-Pin_7)*%
X134900000Y-60250000D03*
%TO.P,J1,8,Pin_8*%
%TO.N,GND*%
X134900000Y-59000000D03*
%TD*%
D11*
%TO.P,C7,1*%
%TO.N,GND*%
X146750000Y-64310000D03*
%TO.P,C7,2*%
%TO.N,Net-(U1-VDD_PA)*%
X146750000Y-63350000D03*
%TD*%
%TO.P,C5,1*%
%TO.N,Net-(U1-XC1)*%
X145450000Y-66610000D03*
%TO.P,C5,2*%
%TO.N,GND*%
X145450000Y-65650000D03*
%TD*%
D15*
%TO.P,C1,1*%
%TO.N,VDD*%
X138000000Y-67900000D03*
%TO.P,C1,2*%
%TO.N,GND*%
X138000000Y-68860000D03*
%TD*%
D16*
%TO.P,Y1,1,1*%
%TO.N,Net-(U1-XC2)*%
X141250000Y-68550000D03*
%TO.P,Y1,2,2*%
%TO.N,Net-(U1-XC1)*%
X143750000Y-68550000D03*
%TD*%
D11*
%TO.P,C8,1*%
%TO.N,GND*%
X145000000Y-58060000D03*
%TO.P,C8,2*%
%TO.N,Net-(C10-Pad2)*%
X145000000Y-57100000D03*
%TD*%
D17*
%TO.P,L3,1,1*%
%TO.N,Net-(U1-ANT2)*%
X145400000Y-59300000D03*
%TO.P,L3,2,2*%
%TO.N,Net-(C6-Pad1)*%
X146370000Y-59300000D03*
%TD*%
D18*
%TO.P,C11,1*%
%TO.N,GND*%
X139980000Y-57200000D03*
%TO.P,C11,2*%
%TO.N,Net-(AE1-A)*%
X139020000Y-57200000D03*
%TD*%
D11*
%TO.P,C3,1*%
%TO.N,Net-(U1-DVDD)*%
X140300000Y-59860000D03*
%TO.P,C3,2*%
%TO.N,GND*%
X140300000Y-58900000D03*
%TD*%
D17*
%TO.P,L4,1,1*%
%TO.N,Net-(C10-Pad2)*%
X141100000Y-57200000D03*
%TO.P,L4,2,2*%
%TO.N,Net-(AE1-A)*%
X142070000Y-57200000D03*
%TD*%
D19*
%TO.P,AE1,1,A*%
%TO.N,Net-(AE1-A)*%
X135450000Y-55725000D03*
D20*
%TO.P,AE1,2*%
%TO.N,N/C*%
X133350000Y-55725000D03*
%TD*%
D11*
%TO.P,C2,1*%
%TO.N,VDD*%
X139000000Y-59860000D03*
%TO.P,C2,2*%
%TO.N,GND*%
X139000000Y-58900000D03*
%TD*%
D12*
%TO.P,L2,1,1*%
%TO.N,Net-(U1-ANT1)*%
X146425000Y-62160000D03*
%TO.P,L2,2,2*%
%TO.N,Net-(U1-VDD_PA)*%
X146425000Y-61190000D03*
%TD*%
D21*
%TO.P,U1,1,CE*%
%TO.N,Net-(J1-Pin_6)*%
X138937500Y-62925000D03*
%TO.P,U1,2,CSN*%
%TO.N,Net-(J1-Pin_5)*%
X138937500Y-63425000D03*
%TO.P,U1,3,SCK*%
%TO.N,Net-(J1-Pin_4)*%
X138937500Y-63925000D03*
%TO.P,U1,4,MOSI*%
%TO.N,Net-(J1-Pin_2)*%
X138937500Y-64425000D03*
%TO.P,U1,5,MISO*%
%TO.N,Net-(J1-Pin_3)*%
X138937500Y-64925000D03*
D22*
%TO.P,U1,6,IRQ*%
%TO.N,Net-(J1-Pin_7)*%
X139875000Y-65862500D03*
%TO.P,U1,7,VDD*%
%TO.N,VDD*%
X140375000Y-65862500D03*
%TO.P,U1,8,VSS*%
%TO.N,GND*%
X140875000Y-65862500D03*
%TO.P,U1,9,XC2*%
%TO.N,Net-(U1-XC2)*%
X141375000Y-65862500D03*
%TO.P,U1,10,XC1*%
%TO.N,Net-(U1-XC1)*%
X141875000Y-65862500D03*
D21*
%TO.P,U1,11,VDD_PA*%
%TO.N,Net-(U1-VDD_PA)*%
X142812500Y-64925000D03*
%TO.P,U1,12,ANT1*%
%TO.N,Net-(U1-ANT1)*%
X142812500Y-64425000D03*
%TO.P,U1,13,ANT2*%
%TO.N,Net-(U1-ANT2)*%
X142812500Y-63925000D03*
%TO.P,U1,14,VSS*%
%TO.N,GND*%
X142812500Y-63425000D03*
%TO.P,U1,15,VDD*%
%TO.N,VDD*%
X142812500Y-62925000D03*
D22*
%TO.P,U1,16,IREF*%
%TO.N,Net-(U1-IREF)*%
X141875000Y-61987500D03*
%TO.P,U1,17,VSS*%
%TO.N,GND*%
X141375000Y-61987500D03*
%TO.P,U1,18,VDD*%
%TO.N,VDD*%
X140875000Y-61987500D03*
%TO.P,U1,19,DVDD*%
%TO.N,Net-(U1-DVDD)*%
X140375000Y-61987500D03*
%TO.P,U1,20,VSS*%
%TO.N,GND*%
X139875000Y-61987500D03*
D23*
%TO.P,U1,21*%
%TO.N,N/C*%
X140875000Y-63925000D03*
%TD*%
D11*
%TO.P,C9,1*%
%TO.N,GND*%
X145450000Y-64310000D03*
%TO.P,C9,2*%
%TO.N,Net-(U1-VDD_PA)*%
X145450000Y-63350000D03*
%TD*%
%TO.P,C10,1*%
%TO.N,GND*%
X143700000Y-58100000D03*
%TO.P,C10,2*%
%TO.N,Net-(C10-Pad2)*%
X143700000Y-57140000D03*
%TD*%
D24*
%TO.P,R2,1*%
%TO.N,Net-(U1-XC2)*%
X145850000Y-69070000D03*
%TO.P,R2,2*%
%TO.N,Net-(U1-XC1)*%
X145850000Y-68050000D03*
%TD*%
D11*
%TO.P,C6,1*%
%TO.N,Net-(C6-Pad1)*%
X146400000Y-58060000D03*
%TO.P,C6,2*%
%TO.N,Net-(C10-Pad2)*%
X146400000Y-57100000D03*
%TD*%
D24*
%TO.P,R1,1*%
%TO.N,Net-(U1-IREF)*%
X141800000Y-59920000D03*
%TO.P,R1,2*%
%TO.N,GND*%
X141800000Y-58900000D03*
%TD*%
D25*
%TO.N,*%
X132850000Y-56550000D03*
D26*
%TO.N,VDD*%
X139100000Y-67100000D03*
X142900000Y-60800000D03*
X140700000Y-60800000D03*
X138100000Y-60800000D03*
%TO.N,GND*%
X139100000Y-69300000D03*
X144400000Y-65400000D03*
X144300000Y-60100000D03*
X139230331Y-60869669D03*
%TO.N,Net-(U1-XC2)*%
X146900000Y-69300000D03*
X140000000Y-69300000D03*
%TO.N,Net-(J1-Pin_2)*%
X137000000Y-64600000D03*
X137000000Y-66000000D03*
%TO.N,Net-(J1-Pin_7)*%
X137900000Y-66000000D03*
X137100000Y-60800000D03*
%TD*%
D27*
%TO.N,*%
X133350000Y-55725000D02*
X133350000Y-56050000D01*
X133350000Y-56050000D02*
X132850000Y-56550000D01*
%TO.N,Net-(AE1-A)*%
X142070000Y-57000920D02*
X142070000Y-57200000D01*
X136950000Y-55725000D02*
X135450000Y-55725000D01*
X139020000Y-57200000D02*
X138425000Y-57200000D01*
X139020000Y-57200000D02*
X139020000Y-56890001D01*
X139020000Y-56890001D02*
X139510001Y-56400000D01*
X138425000Y-57200000D02*
X136950000Y-55725000D01*
X141469080Y-56400000D02*
X142070000Y-57000920D01*
X139510001Y-56400000D02*
X141469080Y-56400000D01*
%TO.N,VDD*%
X138500000Y-67100000D02*
X137850000Y-67750000D01*
D28*
X138000000Y-67900000D02*
X139363604Y-67900000D01*
D27*
X134900000Y-67750000D02*
X137850000Y-67750000D01*
D28*
X140875000Y-61987500D02*
X140875000Y-60975000D01*
D27*
X137850000Y-67750000D02*
X138000000Y-67900000D01*
D28*
X140875000Y-60975000D02*
X140700000Y-60800000D01*
X138000000Y-67900000D02*
X138300000Y-67900000D01*
X142812500Y-60887500D02*
X142900000Y-60800000D01*
D27*
X139000000Y-59860000D02*
X139000000Y-59900000D01*
D28*
X140381802Y-66881802D02*
X140375000Y-66875000D01*
D27*
X139000000Y-59900000D02*
X138100000Y-60800000D01*
X139100000Y-67100000D02*
X138500000Y-67100000D01*
D28*
X140375000Y-66875000D02*
X140375000Y-65862500D01*
X139363604Y-67900000D02*
X140381802Y-66881802D01*
X142812500Y-62925000D02*
X142812500Y-60887500D01*
D27*
%TO.N,GND*%
X141800000Y-58900000D02*
X142900000Y-58900000D01*
D28*
X139040000Y-68860000D02*
X140900000Y-67000000D01*
D27*
X145450000Y-64310000D02*
X145450000Y-64350000D01*
D28*
X143700000Y-63100000D02*
X143700000Y-58100000D01*
D27*
X139980000Y-57200000D02*
X139980000Y-58400000D01*
X139100000Y-69300000D02*
X138440000Y-69300000D01*
X145450000Y-64350000D02*
X144400000Y-65400000D01*
D28*
X141155000Y-60249280D02*
X141155000Y-58945000D01*
D27*
X145450000Y-65650000D02*
X146750000Y-65650000D01*
D28*
X143700000Y-58100000D02*
X143700000Y-59500000D01*
X142812500Y-63425000D02*
X143375000Y-63425000D01*
X140875000Y-66675000D02*
X140875000Y-65862500D01*
D27*
X135000000Y-58900000D02*
X134900000Y-59000000D01*
D28*
X141375000Y-61987500D02*
X141375000Y-60469280D01*
D27*
X144960000Y-58100000D02*
X145000000Y-58060000D01*
X141800000Y-58900000D02*
X141200000Y-58900000D01*
X139000000Y-58900000D02*
X139480000Y-58900000D01*
D28*
X140900000Y-66700000D02*
X140875000Y-66675000D01*
X141375000Y-60469280D02*
X141155000Y-60249280D01*
D27*
X139480000Y-58900000D02*
X139980000Y-58400000D01*
X145450000Y-64310000D02*
X146750000Y-64310000D01*
X142900000Y-58900000D02*
X143700000Y-58100000D01*
D28*
X140900000Y-67000000D02*
X140900000Y-66700000D01*
X139230331Y-61342831D02*
X139230331Y-60869669D01*
X138000000Y-68860000D02*
X139040000Y-68860000D01*
D27*
X139980000Y-58400000D02*
X139980000Y-58580000D01*
X143700000Y-58100000D02*
X144960000Y-58100000D01*
X146750000Y-65650000D02*
X146750000Y-64310000D01*
X141200000Y-58900000D02*
X140300000Y-58900000D01*
X138440000Y-69300000D02*
X138000000Y-68860000D01*
D28*
X143375000Y-63425000D02*
X143700000Y-63100000D01*
X139875000Y-61987500D02*
X139230331Y-61342831D01*
D27*
X139980000Y-58580000D02*
X140300000Y-58900000D01*
X139000000Y-58900000D02*
X135000000Y-58900000D01*
D28*
X143700000Y-59500000D02*
X144300000Y-60100000D01*
X141155000Y-58945000D02*
X141200000Y-58900000D01*
%TO.N,Net-(U1-DVDD)*%
X140300000Y-60000000D02*
X140300000Y-59860000D01*
X140375000Y-59935000D02*
X140300000Y-59860000D01*
X140375000Y-61475000D02*
X139900000Y-61000000D01*
X139900000Y-61000000D02*
X139900000Y-60400000D01*
X140375000Y-61987500D02*
X140375000Y-61475000D01*
X139900000Y-60400000D02*
X140300000Y-60000000D01*
D27*
%TO.N,Net-(U1-XC2)*%
X146900000Y-69300000D02*
X146900000Y-68451056D01*
X140750000Y-68550000D02*
X140000000Y-69300000D01*
X146900000Y-68451056D02*
X146750000Y-68301056D01*
X141250000Y-68550000D02*
X140750000Y-68550000D01*
X145850000Y-69070000D02*
X145930000Y-69070000D01*
D28*
X141375000Y-65862500D02*
X141375000Y-68425000D01*
X141375000Y-68425000D02*
X141250000Y-68550000D01*
D27*
X146750000Y-68301056D02*
X146750000Y-66610000D01*
X146281056Y-68770000D02*
X146750000Y-68301056D01*
X145930000Y-69070000D02*
X146230000Y-68770000D01*
X146230000Y-68770000D02*
X146281056Y-68770000D01*
D28*
%TO.N,Net-(U1-XC1)*%
X141875000Y-66675000D02*
X143750000Y-68550000D01*
X141875000Y-65862500D02*
X141875000Y-66675000D01*
D27*
X145850000Y-67010000D02*
X145450000Y-66610000D01*
X143750000Y-68550000D02*
X144250000Y-68050000D01*
X145850000Y-68050000D02*
X145850000Y-67010000D01*
X144250000Y-68050000D02*
X145850000Y-68050000D01*
%TO.N,Net-(C10-Pad2)*%
X141550001Y-57970000D02*
X142681734Y-57970000D01*
X143511734Y-57140000D02*
X143700000Y-57140000D01*
X141100000Y-57519999D02*
X141550001Y-57970000D01*
X145000000Y-57100000D02*
X146400000Y-57100000D01*
X143740000Y-57100000D02*
X143700000Y-57140000D01*
X142681734Y-57970000D02*
X143511734Y-57140000D01*
X141100000Y-57200000D02*
X141100000Y-57519999D01*
X145000000Y-57100000D02*
X143740000Y-57100000D01*
%TO.N,Net-(C6-Pad1)*%
X146370000Y-59300000D02*
X146370000Y-58090000D01*
X146370000Y-58090000D02*
X146400000Y-58060000D01*
%TO.N,Net-(U1-VDD_PA)*%
X146744999Y-61190000D02*
X146425000Y-61190000D01*
D28*
X144700000Y-64200000D02*
X144700000Y-64088510D01*
D27*
X146750000Y-63350000D02*
X147250000Y-62850000D01*
X145450000Y-63350000D02*
X146750000Y-63350000D01*
D28*
X144700000Y-64088510D02*
X145438510Y-63350000D01*
D27*
X147250000Y-61695001D02*
X146744999Y-61190000D01*
D28*
X145438510Y-63350000D02*
X145450000Y-63350000D01*
D27*
X147250000Y-62850000D02*
X147250000Y-61695001D01*
D28*
X144700000Y-64200000D02*
X143975000Y-64925000D01*
X143975000Y-64925000D02*
X142812500Y-64925000D01*
%TO.N,Net-(J1-Pin_5)*%
X138937500Y-63425000D02*
X137525000Y-63425000D01*
X136900000Y-62800000D02*
X136700000Y-62800000D01*
X136700000Y-62800000D02*
X136650000Y-62750000D01*
X136650000Y-62750000D02*
X134900000Y-62750000D01*
X137525000Y-63425000D02*
X136900000Y-62800000D01*
%TO.N,Net-(J1-Pin_2)*%
X138937500Y-64425000D02*
X137175000Y-64425000D01*
X137000000Y-66000000D02*
X136500000Y-66500000D01*
X136500000Y-66500000D02*
X134900000Y-66500000D01*
X137175000Y-64425000D02*
X137000000Y-64600000D01*
%TO.N,Net-(J1-Pin_3)*%
X137650000Y-65250000D02*
X137975000Y-64925000D01*
X137975000Y-64925000D02*
X138937500Y-64925000D01*
X134900000Y-65250000D02*
X137650000Y-65250000D01*
%TO.N,Net-(J1-Pin_4)*%
X138937500Y-63925000D02*
X134975000Y-63925000D01*
X134975000Y-63925000D02*
X134900000Y-64000000D01*
%TO.N,Net-(J1-Pin_7)*%
X137100000Y-60800000D02*
X136550000Y-60250000D01*
X139875000Y-65862500D02*
X138037500Y-65862500D01*
X138037500Y-65862500D02*
X137900000Y-66000000D01*
X136550000Y-60250000D02*
X134900000Y-60250000D01*
%TO.N,Net-(J1-Pin_6)*%
X138937500Y-62925000D02*
X137512500Y-61500000D01*
X137512500Y-61500000D02*
X134900000Y-61500000D01*
%TO.N,Net-(U1-ANT1)*%
X145450000Y-62250000D02*
X145450000Y-62220000D01*
D27*
X145250000Y-62160000D02*
X146425000Y-62160000D01*
D28*
X143727114Y-64425000D02*
X144700000Y-63452114D01*
X144700000Y-62710000D02*
X145250000Y-62160000D01*
X142812500Y-64425000D02*
X143727114Y-64425000D01*
X144700000Y-63452114D02*
X144700000Y-62710000D01*
D27*
%TO.N,Net-(U1-ANT2)*%
X145400000Y-61040000D02*
X145250000Y-61190000D01*
D28*
X145190001Y-61190000D02*
X145250000Y-61190000D01*
X144207859Y-62172142D02*
X145190001Y-61190000D01*
D27*
X145450000Y-59350000D02*
X145400000Y-59300000D01*
X145400000Y-59300000D02*
X145400000Y-61040000D01*
D28*
X143590718Y-63925000D02*
X144207859Y-63307859D01*
X142812500Y-63925000D02*
X143590718Y-63925000D01*
X144207859Y-63307859D02*
X144207859Y-62172142D01*
%TO.N,Net-(U1-IREF)*%
X141875000Y-61987500D02*
X141875000Y-59995000D01*
X141875000Y-59995000D02*
X141800000Y-59920000D01*
%TD*%
%TA.AperFunction,Conductor*%
%TO.N,GND*%
G36*
X134634561Y-56080726D02*
G01*
X134654871Y-56081565D01*
X134667404Y-56090370D01*
X134682098Y-56094685D01*
X134695407Y-56110044D01*
X134712041Y-56121731D01*
X134725625Y-56144917D01*
X134727853Y-56147489D01*
X134729117Y-56150879D01*
X134729882Y-56152184D01*
X134732259Y-56158015D01*
X134740181Y-56184992D01*
X134748600Y-56198093D01*
X134752920Y-56208688D01*
X134754275Y-56212161D01*
X134756201Y-56217326D01*
X134756203Y-56217329D01*
X134756204Y-56217331D01*
X134789841Y-56262264D01*
X134817969Y-56306032D01*
X134831165Y-56317466D01*
X134839155Y-56328139D01*
X134839155Y-56328140D01*
X134839156Y-56328141D01*
X134842453Y-56332546D01*
X134872765Y-56355237D01*
X134887380Y-56366178D01*
X134926706Y-56400254D01*
X134942589Y-56407507D01*
X134953263Y-56415498D01*
X134953263Y-56415499D01*
X134957664Y-56418793D01*
X134957666Y-56418794D01*
X134957669Y-56418796D01*
X135010251Y-56438408D01*
X135057584Y-56460024D01*
X135074870Y-56462509D01*
X135092517Y-56469091D01*
X135130567Y-56473182D01*
X135152116Y-56475499D01*
X135152118Y-56475499D01*
X135152127Y-56475500D01*
X135156351Y-56475499D01*
X135174000Y-56476761D01*
X135200000Y-56480500D01*
X135700000Y-56480500D01*
X135762863Y-56476004D01*
X135765495Y-56475816D01*
X135774341Y-56475500D01*
X136587770Y-56475500D01*
X136654809Y-56495185D01*
X136675451Y-56511819D01*
X137946584Y-57782952D01*
X137975548Y-57802305D01*
X138004508Y-57821655D01*
X138004510Y-57821656D01*
X138004513Y-57821658D01*
X138069505Y-57865084D01*
X138069506Y-57865084D01*
X138069507Y-57865085D01*
X138144343Y-57896083D01*
X138206087Y-57921658D01*
X138206091Y-57921658D01*
X138206092Y-57921659D01*
X138351079Y-57950500D01*
X138351082Y-57950500D01*
X138351083Y-57950500D01*
X138488256Y-57950500D01*
X138555295Y-57970185D01*
X138601050Y-58022989D01*
X138610994Y-58092147D01*
X138581969Y-58155703D01*
X138551377Y-58181232D01*
X138434625Y-58250278D01*
X138434616Y-58250285D01*
X138320285Y-58364616D01*
X138320278Y-58364625D01*
X138237968Y-58503804D01*
X138195496Y-58650000D01*
X141205851Y-58650000D01*
X141206172Y-58650046D01*
X141206331Y-58650001D01*
X141207581Y-58650252D01*
X141241246Y-58655159D01*
X141247387Y-58656988D01*
X141251081Y-58658518D01*
X141331089Y-58691659D01*
X141423885Y-58710117D01*
X141468644Y-58719020D01*
X141476082Y-58720500D01*
X141476083Y-58720500D01*
X142755654Y-58720500D01*
X142865140Y-58698721D01*
X142900647Y-58691658D01*
X142948490Y-58671840D01*
X143017957Y-58664371D01*
X143080436Y-58695645D01*
X143083624Y-58698721D01*
X143134616Y-58749714D01*
X143134625Y-58749721D01*
X143273804Y-58832031D01*
X143429089Y-58877145D01*
X143450000Y-58878789D01*
X143450000Y-58314463D01*
X143458644Y-58285022D01*
X143465168Y-58255036D01*
X143468922Y-58250020D01*
X143469685Y-58247424D01*
X143486319Y-58226782D01*
X143576782Y-58136319D01*
X143638105Y-58102834D01*
X143664463Y-58100000D01*
X143700000Y-58100000D01*
X143700000Y-58064463D01*
X143708644Y-58035022D01*
X143715168Y-58005036D01*
X143718922Y-58000020D01*
X143719685Y-57997424D01*
X143736319Y-57976782D01*
X143756282Y-57956819D01*
X143817605Y-57923334D01*
X143843963Y-57920500D01*
X143934682Y-57920500D01*
X143934690Y-57920500D01*
X143970993Y-57917643D01*
X143970995Y-57917642D01*
X143970997Y-57917642D01*
X144045202Y-57896083D01*
X144126395Y-57872494D01*
X144134386Y-57867767D01*
X144197507Y-57850500D01*
X144617934Y-57850500D01*
X144652528Y-57855423D01*
X144729007Y-57877643D01*
X144765310Y-57880500D01*
X144765318Y-57880500D01*
X144876000Y-57880500D01*
X144884685Y-57883050D01*
X144893647Y-57881762D01*
X144917687Y-57892740D01*
X144943039Y-57900185D01*
X144948966Y-57907025D01*
X144957203Y-57910787D01*
X144971492Y-57933021D01*
X144988794Y-57952989D01*
X144991081Y-57963503D01*
X144994977Y-57969565D01*
X145000000Y-58004500D01*
X145000000Y-58186000D01*
X144980315Y-58253039D01*
X144927511Y-58298794D01*
X144876000Y-58310000D01*
X144640000Y-58310000D01*
X144636319Y-58313681D01*
X144574996Y-58347166D01*
X144548638Y-58350000D01*
X143950000Y-58350000D01*
X143950000Y-58878789D01*
X143970910Y-58877145D01*
X144126195Y-58832031D01*
X144265374Y-58749721D01*
X144265378Y-58749718D01*
X144285393Y-58729703D01*
X144310388Y-58716053D01*
X144333749Y-58699785D01*
X144340651Y-58699528D01*
X144346716Y-58696217D01*
X144375120Y-58698247D01*
X144403571Y-58697191D01*
X144412634Y-58700930D01*
X144416407Y-58701200D01*
X144436197Y-58710651D01*
X144577516Y-58794227D01*
X144625200Y-58845296D01*
X144637703Y-58914038D01*
X144633472Y-58935553D01*
X144607390Y-59025326D01*
X144604500Y-59062052D01*
X144604500Y-59537947D01*
X144607390Y-59574673D01*
X144607391Y-59574675D01*
X144642549Y-59695688D01*
X144644576Y-59702663D01*
X144649500Y-59737259D01*
X144649500Y-60502727D01*
X144629815Y-60569766D01*
X144613181Y-60590408D01*
X144561414Y-60642174D01*
X144561408Y-60642182D01*
X144478068Y-60783104D01*
X144478066Y-60783107D01*
X144432391Y-60940320D01*
X144432390Y-60940326D01*
X144429500Y-60977052D01*
X144429500Y-61014548D01*
X144409815Y-61081587D01*
X144393181Y-61102229D01*
X143811853Y-61683556D01*
X143811845Y-61683564D01*
X143809128Y-61686282D01*
X143809126Y-61686284D01*
X143722001Y-61773409D01*
X143693877Y-61815500D01*
X143689248Y-61822427D01*
X143689244Y-61822432D01*
X143665101Y-61858564D01*
X143611488Y-61903369D01*
X143542163Y-61912075D01*
X143479136Y-61881919D01*
X143442418Y-61822476D01*
X143438000Y-61789672D01*
X143438000Y-61445440D01*
X143457685Y-61378401D01*
X143474320Y-61357758D01*
X143521786Y-61310292D01*
X143521789Y-61310289D01*
X143609394Y-61179179D01*
X143669737Y-61033497D01*
X143700500Y-60878842D01*
X143700500Y-60721158D01*
X143700500Y-60721155D01*
X143700499Y-60721153D01*
X143687913Y-60657880D01*
X143669737Y-60566503D01*
X143664687Y-60554311D01*
X143609397Y-60420827D01*
X143609390Y-60420814D01*
X143521789Y-60289711D01*
X143521786Y-60289707D01*
X143410292Y-60178213D01*
X143410288Y-60178210D01*
X143279185Y-60090609D01*
X143279172Y-60090602D01*
X143133501Y-60030264D01*
X143133489Y-60030261D01*
X142978845Y-59999500D01*
X142978842Y-59999500D01*
X142821158Y-59999500D01*
X142821156Y-59999500D01*
X142768691Y-60009936D01*
X142699099Y-60003709D01*
X142643922Y-59960846D01*
X142620677Y-59894956D01*
X142620499Y-59888319D01*
X142620499Y-59720831D01*
X142620498Y-59720806D01*
X142617665Y-59684799D01*
X142617665Y-59684796D01*
X142572869Y-59530607D01*
X142538581Y-59472629D01*
X142521398Y-59404905D01*
X142538582Y-59346386D01*
X142572404Y-59289196D01*
X142572405Y-59289194D01*
X142612844Y-59150000D01*
X142060409Y-59150000D01*
X142050680Y-59149618D01*
X142049186Y-59149500D01*
X141550830Y-59149500D01*
X141550813Y-59149501D01*
X141549692Y-59149589D01*
X141549330Y-59149618D01*
X141539607Y-59150000D01*
X140798352Y-59150000D01*
X140735233Y-59132732D01*
X140726395Y-59127506D01*
X140726393Y-59127505D01*
X140726389Y-59127503D01*
X140570997Y-59082357D01*
X140570991Y-59082356D01*
X140534697Y-59079500D01*
X140534690Y-59079500D01*
X140065310Y-59079500D01*
X140065302Y-59079500D01*
X140029008Y-59082356D01*
X140029002Y-59082357D01*
X139873610Y-59127503D01*
X139873605Y-59127506D01*
X139864766Y-59132732D01*
X139801648Y-59150000D01*
X139498352Y-59150000D01*
X139435233Y-59132732D01*
X139426395Y-59127506D01*
X139426393Y-59127505D01*
X139426389Y-59127503D01*
X139270997Y-59082357D01*
X139270991Y-59082356D01*
X139234697Y-59079500D01*
X139234690Y-59079500D01*
X138765310Y-59079500D01*
X138765302Y-59079500D01*
X138729008Y-59082356D01*
X138729002Y-59082357D01*
X138573610Y-59127503D01*
X138573605Y-59127506D01*
X138564766Y-59132732D01*
X138501648Y-59150000D01*
X138195496Y-59150000D01*
X138237968Y-59296194D01*
X138249911Y-59316389D01*
X138267092Y-59384113D01*
X138260630Y-59419270D01*
X138256485Y-59431512D01*
X138237506Y-59463605D01*
X138192357Y-59619007D01*
X138192158Y-59621532D01*
X138188683Y-59631798D01*
X138173594Y-59653293D01*
X138161784Y-59676749D01*
X138158912Y-59679718D01*
X137784704Y-60053927D01*
X137744478Y-60080806D01*
X137720826Y-60090603D01*
X137720814Y-60090609D01*
X137668891Y-60125304D01*
X137602214Y-60146182D01*
X137534833Y-60127698D01*
X137531109Y-60125304D01*
X137479185Y-60090609D01*
X137479172Y-60090602D01*
X137333501Y-60030264D01*
X137333489Y-60030261D01*
X137222285Y-60008141D01*
X137205528Y-59999376D01*
X137187049Y-59995356D01*
X137162010Y-59976611D01*
X137160374Y-59975756D01*
X137158795Y-59974205D01*
X137042928Y-59858338D01*
X137042926Y-59858335D01*
X137042925Y-59858334D01*
X137042925Y-59858335D01*
X137035858Y-59851268D01*
X137035858Y-59851267D01*
X136948733Y-59764142D01*
X136948732Y-59764141D01*
X136948731Y-59764140D01*
X136903325Y-59733801D01*
X136903324Y-59733800D01*
X136897509Y-59729915D01*
X136846286Y-59695688D01*
X136765792Y-59662347D01*
X136743934Y-59653293D01*
X136732453Y-59648537D01*
X136722427Y-59646543D01*
X136672029Y-59636518D01*
X136611610Y-59624500D01*
X136611607Y-59624500D01*
X136611606Y-59624500D01*
X136105176Y-59624500D01*
X136038137Y-59604815D01*
X135992382Y-59552011D01*
X135982438Y-59482853D01*
X135990615Y-59453048D01*
X136063491Y-59277107D01*
X136063493Y-59277100D01*
X136068884Y-59250000D01*
X135066988Y-59250000D01*
X135084205Y-59240060D01*
X135140060Y-59184205D01*
X135179556Y-59115796D01*
X135200000Y-59039496D01*
X135200000Y-58960504D01*
X135179556Y-58884204D01*
X135140060Y-58815795D01*
X135084205Y-58759940D01*
X135066988Y-58750000D01*
X135150000Y-58750000D01*
X136068884Y-58750000D01*
X136068884Y-58749999D01*
X136063493Y-58722899D01*
X136063492Y-58722896D01*
X135991880Y-58550008D01*
X135991875Y-58549999D01*
X135887913Y-58394410D01*
X135887910Y-58394406D01*
X135755593Y-58262089D01*
X135755589Y-58262086D01*
X135600000Y-58158124D01*
X135599991Y-58158119D01*
X135427105Y-58086508D01*
X135427097Y-58086506D01*
X135243570Y-58050000D01*
X135150000Y-58050000D01*
X135150000Y-58750000D01*
X135066988Y-58750000D01*
X135015796Y-58720444D01*
X134939496Y-58700000D01*
X134860504Y-58700000D01*
X134784204Y-58720444D01*
X134715795Y-58759940D01*
X134659940Y-58815795D01*
X134620444Y-58884204D01*
X134600000Y-58960504D01*
X134600000Y-59039496D01*
X134620444Y-59115796D01*
X134659940Y-59184205D01*
X134715795Y-59240060D01*
X134733012Y-59250000D01*
X133731116Y-59250000D01*
X133736506Y-59277100D01*
X133736507Y-59277103D01*
X133808119Y-59449991D01*
X133808127Y-59450005D01*
X133878723Y-59555660D01*
X133899601Y-59622337D01*
X133881116Y-59689717D01*
X133878723Y-59693440D01*
X133807684Y-59799757D01*
X133807676Y-59799771D01*
X133736027Y-59972748D01*
X133736025Y-59972756D01*
X133699500Y-60156379D01*
X133699500Y-60343620D01*
X133736025Y-60527243D01*
X133736027Y-60527251D01*
X133762188Y-60590408D01*
X133807676Y-60700228D01*
X133807680Y-60700235D01*
X133878423Y-60806110D01*
X133899300Y-60872787D01*
X133880815Y-60940167D01*
X133878423Y-60943890D01*
X133807680Y-61049764D01*
X133807676Y-61049771D01*
X133736027Y-61222748D01*
X133736025Y-61222756D01*
X133699500Y-61406379D01*
X133699500Y-61593620D01*
X133736025Y-61777243D01*
X133736027Y-61777251D01*
X133807676Y-61950228D01*
X133807680Y-61950235D01*
X133878423Y-62056110D01*
X133899300Y-62122787D01*
X133880815Y-62190167D01*
X133878423Y-62193890D01*
X133807680Y-62299764D01*
X133807676Y-62299771D01*
X133736027Y-62472748D01*
X133736025Y-62472756D01*
X133699500Y-62656379D01*
X133699500Y-62843620D01*
X133736025Y-63027243D01*
X133736027Y-63027251D01*
X133807676Y-63200228D01*
X133807680Y-63200235D01*
X133878423Y-63306110D01*
X133899300Y-63372787D01*
X133880815Y-63440167D01*
X133878423Y-63443890D01*
X133807680Y-63549764D01*
X133807676Y-63549771D01*
X133736027Y-63722748D01*
X133736025Y-63722756D01*
X133699500Y-63906379D01*
X133699500Y-64093620D01*
X133736025Y-64277243D01*
X133736027Y-64277251D01*
X133807676Y-64450228D01*
X133807680Y-64450235D01*
X133878423Y-64556110D01*
X133899300Y-64622787D01*
X133880815Y-64690167D01*
X133878423Y-64693890D01*
X133807680Y-64799764D01*
X133807676Y-64799771D01*
X133736027Y-64972748D01*
X133736025Y-64972756D01*
X133699500Y-65156379D01*
X133699500Y-65343620D01*
X133736025Y-65527243D01*
X133736027Y-65527251D01*
X133807676Y-65700228D01*
X133807680Y-65700235D01*
X133878423Y-65806110D01*
X133899300Y-65872787D01*
X133880815Y-65940167D01*
X133878423Y-65943890D01*
X133807680Y-66049764D01*
X133807676Y-66049771D01*
X133736027Y-66222748D01*
X133736025Y-66222756D01*
X133699500Y-66406379D01*
X133699500Y-66593620D01*
X133736025Y-66777243D01*
X133736027Y-66777251D01*
X133807677Y-66950230D01*
X133825541Y-66976965D01*
X133846419Y-67043643D01*
X133827978Y-67110953D01*
X133762998Y-67216300D01*
X133762996Y-67216305D01*
X133709651Y-67377290D01*
X133699500Y-67476647D01*
X133699500Y-68023337D01*
X133699501Y-68023355D01*
X133709650Y-68122707D01*
X133709651Y-68122710D01*
X133762996Y-68283694D01*
X133763001Y-68283705D01*
X133852029Y-68428040D01*
X133852032Y-68428044D01*
X133971955Y-68547967D01*
X133971959Y-68547970D01*
X134116294Y-68636998D01*
X134116297Y-68636999D01*
X134116303Y-68637003D01*
X134277292Y-68690349D01*
X134376655Y-68700500D01*
X135423344Y-68700499D01*
X135423352Y-68700498D01*
X135423355Y-68700498D01*
X135477760Y-68694940D01*
X135522708Y-68690349D01*
X135683697Y-68637003D01*
X135828044Y-68547968D01*
X135839193Y-68536819D01*
X135900516Y-68503334D01*
X135926874Y-68500500D01*
X137062156Y-68500500D01*
X137129195Y-68520185D01*
X137174950Y-68572989D01*
X137176665Y-68584921D01*
X137195495Y-68610000D01*
X137501648Y-68610000D01*
X137564766Y-68627267D01*
X137573605Y-68632494D01*
X137573608Y-68632494D01*
X137573610Y-68632496D01*
X137729002Y-68677642D01*
X137729005Y-68677642D01*
X137729007Y-68677643D01*
X137765310Y-68680500D01*
X137765318Y-68680500D01*
X138234682Y-68680500D01*
X138234690Y-68680500D01*
X138270993Y-68677643D01*
X138270995Y-68677642D01*
X138270997Y-68677642D01*
X138426389Y-68632496D01*
X138426389Y-68632495D01*
X138426395Y-68632494D01*
X138435233Y-68627267D01*
X138498352Y-68610000D01*
X138804504Y-68610000D01*
X138830748Y-68575047D01*
X138886742Y-68533256D01*
X138929909Y-68525500D01*
X139343059Y-68525500D01*
X139410098Y-68545185D01*
X139455853Y-68597989D01*
X139465797Y-68667147D01*
X139436772Y-68730703D01*
X139430740Y-68737181D01*
X139378213Y-68789707D01*
X139378210Y-68789711D01*
X139290609Y-68920814D01*
X139290602Y-68920827D01*
X139230264Y-69066498D01*
X139230261Y-69066510D01*
X139199500Y-69221153D01*
X139199500Y-69378846D01*
X139213914Y-69451309D01*
X139207687Y-69520900D01*
X139164824Y-69576078D01*
X139098934Y-69599322D01*
X139092297Y-69599500D01*
X138774502Y-69599500D01*
X138707463Y-69579815D01*
X138661708Y-69527011D01*
X138651764Y-69457853D01*
X138676520Y-69399503D01*
X138679718Y-69395379D01*
X138762031Y-69256195D01*
X138804504Y-69110000D01*
X137195496Y-69110000D01*
X137237968Y-69256195D01*
X137320281Y-69395379D01*
X137323480Y-69399503D01*
X137349013Y-69464541D01*
X137335330Y-69533058D01*
X137286777Y-69583300D01*
X137225498Y-69599500D01*
X132574500Y-69599500D01*
X132507461Y-69579815D01*
X132461706Y-69527011D01*
X132450500Y-69475500D01*
X132450500Y-58749999D01*
X133731115Y-58749999D01*
X133731116Y-58750000D01*
X134650000Y-58750000D01*
X134650000Y-58050000D01*
X134556430Y-58050000D01*
X134372902Y-58086506D01*
X134372894Y-58086508D01*
X134200008Y-58158119D01*
X134199999Y-58158124D01*
X134044410Y-58262086D01*
X134044406Y-58262089D01*
X133912089Y-58394406D01*
X133912086Y-58394410D01*
X133808124Y-58549999D01*
X133808119Y-58550008D01*
X133736507Y-58722896D01*
X133736506Y-58722899D01*
X133731115Y-58749999D01*
X132450500Y-58749999D01*
X132450500Y-57539770D01*
X132470185Y-57472731D01*
X132522989Y-57426976D01*
X132592147Y-57417032D01*
X132598682Y-57418151D01*
X132643047Y-57426976D01*
X132761306Y-57450500D01*
X132761309Y-57450500D01*
X132938693Y-57450500D01*
X132938694Y-57450499D01*
X133018173Y-57434690D01*
X133112658Y-57415896D01*
X133112661Y-57415894D01*
X133112666Y-57415894D01*
X133276547Y-57348013D01*
X133424035Y-57249464D01*
X133549464Y-57124035D01*
X133648013Y-56976547D01*
X133715894Y-56812666D01*
X133725239Y-56765680D01*
X133757622Y-56703772D01*
X133759060Y-56702306D01*
X133932952Y-56528416D01*
X133970232Y-56472619D01*
X133977061Y-56465910D01*
X133979619Y-56460310D01*
X134006291Y-56437196D01*
X134009987Y-56434820D01*
X134009992Y-56434819D01*
X134013471Y-56432582D01*
X134037167Y-56420721D01*
X134042331Y-56418796D01*
X134087264Y-56385158D01*
X134131032Y-56357031D01*
X134142467Y-56343833D01*
X134157546Y-56332546D01*
X134191178Y-56287619D01*
X134225254Y-56248294D01*
X134232508Y-56232409D01*
X134243796Y-56217331D01*
X134261865Y-56168883D01*
X134265253Y-56160707D01*
X134271296Y-56147478D01*
X134317055Y-56094678D01*
X134384085Y-56075000D01*
X134615059Y-56075000D01*
X134634561Y-56080726D01*
G37*
%TD.AperFunction*%
%TA.AperFunction,Conductor*%
G36*
X146402528Y-64105423D02*
G01*
X146479007Y-64127643D01*
X146515310Y-64130500D01*
X146515318Y-64130500D01*
X146626000Y-64130500D01*
X146693039Y-64150185D01*
X146738794Y-64202989D01*
X146750000Y-64254500D01*
X146750000Y-64310000D01*
X146876000Y-64310000D01*
X146943039Y-64329685D01*
X146988794Y-64382489D01*
X147000000Y-64434000D01*
X147000000Y-65526000D01*
X146980315Y-65593039D01*
X146927511Y-65638794D01*
X146876000Y-65650000D01*
X146750000Y-65650000D01*
X146750000Y-65705500D01*
X146730315Y-65772539D01*
X146677511Y-65818294D01*
X146626000Y-65829500D01*
X146515302Y-65829500D01*
X146479008Y-65832356D01*
X146479002Y-65832357D01*
X146323610Y-65877503D01*
X146323605Y-65877506D01*
X146314766Y-65882732D01*
X146251648Y-65900000D01*
X145948352Y-65900000D01*
X145885233Y-65882732D01*
X145876395Y-65877506D01*
X145876393Y-65877505D01*
X145876389Y-65877503D01*
X145720997Y-65832357D01*
X145720991Y-65832356D01*
X145684697Y-65829500D01*
X145684690Y-65829500D01*
X145215310Y-65829500D01*
X145215302Y-65829500D01*
X145179008Y-65832356D01*
X145179002Y-65832357D01*
X145023610Y-65877503D01*
X145023605Y-65877506D01*
X145014766Y-65882732D01*
X144951648Y-65900000D01*
X144645496Y-65900000D01*
X144687968Y-66046194D01*
X144699911Y-66066389D01*
X144717092Y-66134113D01*
X144699911Y-66192628D01*
X144687506Y-66213604D01*
X144687504Y-66213609D01*
X144642357Y-66369002D01*
X144642356Y-66369008D01*
X144639500Y-66405302D01*
X144639500Y-66814697D01*
X144642356Y-66850991D01*
X144642357Y-66850997D01*
X144687504Y-67006390D01*
X144687505Y-67006393D01*
X144738444Y-67092527D01*
X144755627Y-67160251D01*
X144733467Y-67226514D01*
X144679001Y-67270277D01*
X144609521Y-67277646D01*
X144557401Y-67254915D01*
X144492331Y-67206204D01*
X144492328Y-67206202D01*
X144357482Y-67155908D01*
X144357483Y-67155908D01*
X144297883Y-67149501D01*
X144297881Y-67149500D01*
X144297873Y-67149500D01*
X144297865Y-67149500D01*
X143285453Y-67149500D01*
X143218414Y-67129815D01*
X143197772Y-67113181D01*
X142536819Y-66452228D01*
X142503334Y-66390905D01*
X142500500Y-66364547D01*
X142500500Y-65790905D01*
X142500499Y-65790891D01*
X142500499Y-65674499D01*
X142520184Y-65607460D01*
X142572988Y-65561705D01*
X142624499Y-65550499D01*
X142740892Y-65550499D01*
X142740904Y-65550500D01*
X142750894Y-65550500D01*
X144036608Y-65550500D01*
X144036608Y-65550499D01*
X144109459Y-65536009D01*
X144157452Y-65526463D01*
X144190792Y-65512652D01*
X144271286Y-65479312D01*
X144341415Y-65432452D01*
X144373733Y-65410858D01*
X144435570Y-65349020D01*
X144438761Y-65346239D01*
X144466791Y-65333335D01*
X144493886Y-65318540D01*
X144498252Y-65318852D01*
X144502228Y-65317022D01*
X144532791Y-65321322D01*
X144563578Y-65323524D01*
X144567088Y-65326147D01*
X144571417Y-65326757D01*
X144594502Y-65346639D01*
X144619407Y-65365254D01*
X144645495Y-65400000D01*
X145200000Y-65400000D01*
X145700000Y-65400000D01*
X146500000Y-65400000D01*
X146500000Y-64560000D01*
X145700000Y-64560000D01*
X145700000Y-65400000D01*
X145200000Y-65400000D01*
X145200000Y-64615182D01*
X145205327Y-64597037D01*
X145205665Y-64578131D01*
X145219164Y-64549914D01*
X145219685Y-64548143D01*
X145220831Y-64546390D01*
X145244013Y-64511698D01*
X145254312Y-64496285D01*
X145294719Y-64398733D01*
X145299670Y-64386780D01*
X145326742Y-64346356D01*
X145326973Y-64346125D01*
X145388369Y-64312776D01*
X145414461Y-64310000D01*
X145450000Y-64310000D01*
X145450000Y-64274462D01*
X145458644Y-64245022D01*
X145465169Y-64215032D01*
X145468923Y-64210017D01*
X145469685Y-64207423D01*
X145486321Y-64186779D01*
X145506284Y-64166817D01*
X145567608Y-64133333D01*
X145593963Y-64130500D01*
X145684682Y-64130500D01*
X145684690Y-64130500D01*
X145720993Y-64127643D01*
X145797471Y-64105423D01*
X145832066Y-64100500D01*
X146367934Y-64100500D01*
X146402528Y-64105423D01*
G37*
%TD.AperFunction*%
%TA.AperFunction,Conductor*%
G36*
X139193834Y-60870046D02*
G01*
X139249767Y-60911918D01*
X139274184Y-60977382D01*
X139274500Y-60986228D01*
X139274500Y-61061606D01*
X139297793Y-61178714D01*
X139298537Y-61182451D01*
X139315229Y-61222749D01*
X139325917Y-61248553D01*
X139333385Y-61318022D01*
X139323191Y-61345869D01*
X139324267Y-61346315D01*
X139264478Y-61490657D01*
X139264478Y-61490658D01*
X139250000Y-61600622D01*
X139250000Y-61862500D01*
X139625500Y-61862500D01*
X139634185Y-61865050D01*
X139643147Y-61863762D01*
X139667187Y-61874740D01*
X139692539Y-61882185D01*
X139698466Y-61889025D01*
X139706703Y-61892787D01*
X139720992Y-61915021D01*
X139738294Y-61934989D01*
X139740581Y-61945503D01*
X139744477Y-61951565D01*
X139749500Y-61986500D01*
X139749500Y-61988500D01*
X139729815Y-62055539D01*
X139677011Y-62101294D01*
X139625500Y-62112500D01*
X139250000Y-62112500D01*
X139217476Y-62145024D01*
X139156152Y-62178508D01*
X139086461Y-62173523D01*
X139042114Y-62145023D01*
X138542441Y-61645351D01*
X138508956Y-61584028D01*
X138513940Y-61514337D01*
X138555811Y-61458403D01*
X138561209Y-61454582D01*
X138610289Y-61421789D01*
X138721789Y-61310289D01*
X138809394Y-61179179D01*
X138819192Y-61155521D01*
X138846069Y-61115296D01*
X139062820Y-60898546D01*
X139124142Y-60865062D01*
X139193834Y-60870046D01*
G37*
%TD.AperFunction*%
%TD*%
M02*
