M48
; DRILL file {KiCad 9.0.0} date 2025-03-18T12:58:05-0400
; FORMAT={-:-/ absolute / metric / decimal}
; #@! TF.CreationDate,2025-03-18T12:58:05-04:00
; #@! TF.GenerationSoftware,Kicad,Pcbnew,9.0.0
; #@! TF.FileFunction,Plated,1,2,PTH
FMAT,2
METRIC
; #@! TA.AperFunction,Plated,PTH,ViaDrill
T1C0.300
; #@! TA.AperFunction,Plated,PTH,ComponentDrill
T2C0.300
; #@! TA.AperFunction,Plated,PTH,ViaDrill
T3C0.400
; #@! TA.AperFunction,Plated,PTH,ComponentDrill
T4C0.600
%
G90
G05
T1
X137.0Y-64.6
X137.0Y-66.0
X137.1Y-60.8
X137.9Y-66.0
X138.1Y-60.8
X139.1Y-67.1
X139.1Y-69.3
X139.23Y-60.87
X140.0Y-69.3
X140.7Y-60.8
X142.9Y-60.8
X144.3Y-60.1
X144.4Y-65.4
X146.9Y-69.3
T2
X133.35Y-55.725
T3
X132.85Y-56.55
T4
X134.9Y-59.0
X134.9Y-60.25
X134.9Y-61.5
X134.9Y-62.75
X134.9Y-64.0
X134.9Y-65.25
X134.9Y-66.5
X134.9Y-67.75
M30
