%TF.GenerationSoftware,KiCad,Pcbnew,9.0.0*%
%TF.CreationDate,2025-03-18T12:57:55-04:00*%
%TF.ProjectId,Tarea_1_Modulo_NRF24L01,54617265-615f-4315-9f4d-6f64756c6f5f,rev?*%
%TF.SameCoordinates,Original*%
%TF.FileFunction,Copper,L2,Bot*%
%TF.FilePolarity,Positive*%
%FSLAX46Y46*%
G04 Gerber Fmt 4.6, Leading zero omitted, Abs format (unit mm)*
G04 Created by KiCad (PCBNEW 9.0.0) date 2025-03-18 12:57:55*
%MOMM*%
%LPD*%
G01*
G04 APERTURE LIST*
G04 Aperture macros list*
%AMRoundRect*
0 Rectangle with rounded corners*
0 $1 Rounding radius*
0 $2 $3 $4 $5 $6 $7 $8 $9 X,Y pos of 4 corners*
0 Add a 4 corners polygon primitive as box body*
4,1,4,$2,$3,$4,$5,$6,$7,$8,$9,$2,$3,0*
0 Add four circle primitives for the rounded corners*
1,1,$1+$1,$2,$3*
1,1,$1+$1,$4,$5*
1,1,$1+$1,$6,$7*
1,1,$1+$1,$8,$9*
0 Add four rect primitives between the rounded corners*
20,1,$1+$1,$2,$3,$4,$5,0*
20,1,$1+$1,$4,$5,$6,$7,0*
20,1,$1+$1,$6,$7,$8,$9,0*
20,1,$1+$1,$8,$9,$2,$3,0*%
G04 Aperture macros list end*
%TA.AperFunction,ComponentPad*%
%ADD10RoundRect,0.225000X0.475000X-0.225000X0.475000X0.225000X-0.475000X0.225000X-0.475000X-0.225000X0*%
%TD*%
%TA.AperFunction,ComponentPad*%
%ADD11O,1.400000X0.900000*%
%TD*%
%TA.AperFunction,ComponentPad*%
%ADD12R,0.900000X0.500000*%
%TD*%
%TA.AperFunction,ViaPad*%
%ADD13C,0.800000*%
%TD*%
%TA.AperFunction,ViaPad*%
%ADD14C,0.600000*%
%TD*%
%TA.AperFunction,Conductor*%
%ADD15C,0.500000*%
%TD*%
%TA.AperFunction,Conductor*%
%ADD16C,0.250000*%
%TD*%
G04 APERTURE END LIST*
D10*
%TO.P,J1,1,Pin_1*%
%TO.N,VDD*%
X134900000Y-67750000D03*
D11*
%TO.P,J1,2,Pin_2*%
%TO.N,Net-(J1-Pin_2)*%
X134900000Y-66500000D03*
%TO.P,J1,3,Pin_3*%
%TO.N,Net-(J1-Pin_3)*%
X134900000Y-65250000D03*
%TO.P,J1,4,Pin_4*%
%TO.N,Net-(J1-Pin_4)*%
X134900000Y-64000000D03*
%TO.P,J1,5,Pin_5*%
%TO.N,Net-(J1-Pin_5)*%
X134900000Y-62750000D03*
%TO.P,J1,6,Pin_6*%
%TO.N,Net-(J1-Pin_6)*%
X134900000Y-61500000D03*
%TO.P,J1,7,Pin_7*%
%TO.N,Net-(J1-Pin_7)*%
X134900000Y-60250000D03*
%TO.P,J1,8,Pin_8*%
%TO.N,GND*%
X134900000Y-59000000D03*
%TD*%
D12*
%TO.P,AE1,2*%
%TO.N,N/C*%
X133350000Y-55725000D03*
%TD*%
D13*
%TO.N,*%
X132850000Y-56550000D03*
D14*
%TO.N,VDD*%
X139100000Y-67100000D03*
X142900000Y-60800000D03*
X140700000Y-60800000D03*
X138100000Y-60800000D03*
%TO.N,GND*%
X139100000Y-69300000D03*
X144400000Y-65400000D03*
X144300000Y-60100000D03*
X139230331Y-60869669D03*
%TO.N,Net-(U1-XC2)*%
X146900000Y-69300000D03*
X140000000Y-69300000D03*
%TO.N,Net-(J1-Pin_2)*%
X137000000Y-64600000D03*
X137000000Y-66000000D03*
%TO.N,Net-(J1-Pin_7)*%
X137900000Y-66000000D03*
X137100000Y-60800000D03*
%TD*%
D15*
%TO.N,VDD*%
X139100000Y-61800000D02*
X139100000Y-62700000D01*
X138100000Y-60800000D02*
X139100000Y-61800000D01*
D16*
X140700000Y-60800000D02*
X139100000Y-62400000D01*
X142900000Y-60800000D02*
X140700000Y-60800000D01*
D15*
X139100000Y-62700000D02*
X139100000Y-67100000D01*
D16*
X139100000Y-62400000D02*
X139100000Y-62700000D01*
%TO.N,GND*%
X144300000Y-65300000D02*
X144400000Y-65400000D01*
X140000000Y-60100000D02*
X144300000Y-60100000D01*
D15*
X140225000Y-67750000D02*
X139100000Y-68875000D01*
X139100000Y-68875000D02*
X139100000Y-69300000D01*
X140489339Y-67750000D02*
X140225000Y-67750000D01*
X144400000Y-65400000D02*
X142839339Y-65400000D01*
X142839339Y-65400000D02*
X140489339Y-67750000D01*
D16*
X139230331Y-60869669D02*
X140000000Y-60100000D01*
X144300000Y-60100000D02*
X144300000Y-65300000D01*
D15*
%TO.N,Net-(U1-XC2)*%
X140000000Y-69300000D02*
X146900000Y-69300000D01*
D16*
%TO.N,Net-(J1-Pin_2)*%
X137000000Y-65900000D02*
X137000000Y-66000000D01*
X137000000Y-64600000D02*
X137000000Y-65900000D01*
%TO.N,Net-(J1-Pin_7)*%
X137900000Y-66000000D02*
X137900000Y-61600000D01*
X137900000Y-61600000D02*
X137100000Y-60800000D01*
%TD*%
%TA.AperFunction,Conductor*%
%TO.N,GND*%
G36*
X147467539Y-56094685D02*
G01*
X147513294Y-56147489D01*
X147524500Y-56199000D01*
X147524500Y-68522536D01*
X147504815Y-68589575D01*
X147452011Y-68635330D01*
X147382853Y-68645274D01*
X147331609Y-68625638D01*
X147279185Y-68590609D01*
X147279172Y-68590602D01*
X147133501Y-68530264D01*
X147133489Y-68530261D01*
X146978845Y-68499500D01*
X146978842Y-68499500D01*
X146821158Y-68499500D01*
X146821155Y-68499500D01*
X146666511Y-68530260D01*
X146666506Y-68530262D01*
X146666504Y-68530262D01*
X146666503Y-68530263D01*
X146642844Y-68540062D01*
X146595396Y-68549500D01*
X140304604Y-68549500D01*
X140257155Y-68540062D01*
X140233497Y-68530263D01*
X140233493Y-68530262D01*
X140233488Y-68530260D01*
X140078845Y-68499500D01*
X140078842Y-68499500D01*
X139921158Y-68499500D01*
X139921155Y-68499500D01*
X139766510Y-68530261D01*
X139766498Y-68530264D01*
X139620827Y-68590602D01*
X139620814Y-68590609D01*
X139489711Y-68678210D01*
X139489707Y-68678213D01*
X139378213Y-68789707D01*
X139378210Y-68789711D01*
X139290609Y-68920814D01*
X139290602Y-68920827D01*
X139230264Y-69066498D01*
X139230261Y-69066510D01*
X139199500Y-69221153D01*
X139199500Y-69378846D01*
X139213914Y-69451309D01*
X139207687Y-69520900D01*
X139164824Y-69576078D01*
X139098934Y-69599322D01*
X139092297Y-69599500D01*
X132574500Y-69599500D01*
X132507461Y-69579815D01*
X132461706Y-69527011D01*
X132450500Y-69475500D01*
X132450500Y-60156379D01*
X133699500Y-60156379D01*
X133699500Y-60343620D01*
X133736025Y-60527243D01*
X133736027Y-60527251D01*
X133807676Y-60700228D01*
X133807680Y-60700235D01*
X133878423Y-60806110D01*
X133899300Y-60872787D01*
X133880815Y-60940167D01*
X133878423Y-60943890D01*
X133807680Y-61049764D01*
X133807676Y-61049771D01*
X133736027Y-61222748D01*
X133736025Y-61222756D01*
X133699500Y-61406379D01*
X133699500Y-61593620D01*
X133736025Y-61777243D01*
X133736027Y-61777251D01*
X133807676Y-61950228D01*
X133807680Y-61950235D01*
X133878423Y-62056110D01*
X133899300Y-62122787D01*
X133880815Y-62190167D01*
X133878423Y-62193890D01*
X133807680Y-62299764D01*
X133807676Y-62299771D01*
X133736027Y-62472748D01*
X133736025Y-62472756D01*
X133699500Y-62656379D01*
X133699500Y-62843620D01*
X133736025Y-63027243D01*
X133736027Y-63027251D01*
X133807676Y-63200228D01*
X133807680Y-63200235D01*
X133878423Y-63306110D01*
X133899300Y-63372787D01*
X133880815Y-63440167D01*
X133878423Y-63443890D01*
X133807680Y-63549764D01*
X133807676Y-63549771D01*
X133736027Y-63722748D01*
X133736025Y-63722756D01*
X133699500Y-63906379D01*
X133699500Y-64093620D01*
X133736025Y-64277243D01*
X133736027Y-64277251D01*
X133807676Y-64450228D01*
X133807680Y-64450235D01*
X133878423Y-64556110D01*
X133899300Y-64622787D01*
X133880815Y-64690167D01*
X133878423Y-64693890D01*
X133807680Y-64799764D01*
X133807676Y-64799771D01*
X133736027Y-64972748D01*
X133736025Y-64972756D01*
X133699500Y-65156379D01*
X133699500Y-65343620D01*
X133736025Y-65527243D01*
X133736027Y-65527251D01*
X133807676Y-65700228D01*
X133807680Y-65700235D01*
X133878423Y-65806110D01*
X133899300Y-65872787D01*
X133880815Y-65940167D01*
X133878423Y-65943890D01*
X133807680Y-66049764D01*
X133807676Y-66049771D01*
X133736027Y-66222748D01*
X133736025Y-66222756D01*
X133699500Y-66406379D01*
X133699500Y-66593620D01*
X133736025Y-66777243D01*
X133736027Y-66777251D01*
X133807677Y-66950230D01*
X133825541Y-66976965D01*
X133846419Y-67043643D01*
X133827978Y-67110953D01*
X133762998Y-67216300D01*
X133762996Y-67216305D01*
X133709651Y-67377290D01*
X133699500Y-67476647D01*
X133699500Y-68023337D01*
X133699501Y-68023355D01*
X133709650Y-68122707D01*
X133709651Y-68122710D01*
X133762996Y-68283694D01*
X133763001Y-68283705D01*
X133852029Y-68428040D01*
X133852032Y-68428044D01*
X133971955Y-68547967D01*
X133971959Y-68547970D01*
X134116294Y-68636998D01*
X134116297Y-68636999D01*
X134116303Y-68637003D01*
X134277292Y-68690349D01*
X134376655Y-68700500D01*
X135423344Y-68700499D01*
X135423352Y-68700498D01*
X135423355Y-68700498D01*
X135477760Y-68694940D01*
X135522708Y-68690349D01*
X135683697Y-68637003D01*
X135828044Y-68547968D01*
X135947968Y-68428044D01*
X136037003Y-68283697D01*
X136090349Y-68122708D01*
X136100500Y-68023345D01*
X136100499Y-67476656D01*
X136090349Y-67377292D01*
X136037003Y-67216303D01*
X135972021Y-67110952D01*
X135953581Y-67043561D01*
X135974459Y-66976964D01*
X135992322Y-66950231D01*
X136063973Y-66777251D01*
X136100500Y-66593616D01*
X136100500Y-66503439D01*
X136120185Y-66436400D01*
X136172989Y-66390645D01*
X136242147Y-66380701D01*
X136305703Y-66409726D01*
X136327602Y-66434548D01*
X136378210Y-66510288D01*
X136378213Y-66510292D01*
X136489707Y-66621786D01*
X136489711Y-66621789D01*
X136620814Y-66709390D01*
X136620827Y-66709397D01*
X136727390Y-66753536D01*
X136766503Y-66769737D01*
X136895499Y-66795396D01*
X136921153Y-66800499D01*
X136921156Y-66800500D01*
X136921158Y-66800500D01*
X137078844Y-66800500D01*
X137078845Y-66800499D01*
X137233497Y-66769737D01*
X137379179Y-66709394D01*
X137381110Y-66708103D01*
X137382276Y-66707737D01*
X137384546Y-66706525D01*
X137384776Y-66706955D01*
X137447786Y-66687226D01*
X137515166Y-66705710D01*
X137518850Y-66708077D01*
X137520821Y-66709394D01*
X137520824Y-66709395D01*
X137520827Y-66709397D01*
X137627390Y-66753536D01*
X137666503Y-66769737D01*
X137795499Y-66795396D01*
X137821153Y-66800499D01*
X137821156Y-66800500D01*
X137821158Y-66800500D01*
X137978844Y-66800500D01*
X137978845Y-66800499D01*
X138133497Y-66769737D01*
X138154578Y-66761004D01*
X138224046Y-66753536D01*
X138286525Y-66784811D01*
X138322178Y-66844899D01*
X138323647Y-66899757D01*
X138299500Y-67021153D01*
X138299500Y-67178846D01*
X138330261Y-67333489D01*
X138330264Y-67333501D01*
X138390602Y-67479172D01*
X138390609Y-67479185D01*
X138478210Y-67610288D01*
X138478213Y-67610292D01*
X138589707Y-67721786D01*
X138589711Y-67721789D01*
X138720814Y-67809390D01*
X138720827Y-67809397D01*
X138866498Y-67869735D01*
X138866503Y-67869737D01*
X139021153Y-67900499D01*
X139021156Y-67900500D01*
X139021158Y-67900500D01*
X139178844Y-67900500D01*
X139178845Y-67900499D01*
X139333497Y-67869737D01*
X139479179Y-67809394D01*
X139610289Y-67721789D01*
X139721789Y-67610289D01*
X139809394Y-67479179D01*
X139810440Y-67476655D01*
X139823067Y-67446166D01*
X139869737Y-67333497D01*
X139900500Y-67178842D01*
X139900500Y-67021158D01*
X139900500Y-67021155D01*
X139900499Y-67021153D01*
X139869739Y-66866511D01*
X139869738Y-66866508D01*
X139869737Y-66866503D01*
X139859937Y-66842844D01*
X139850500Y-66795396D01*
X139850500Y-62585452D01*
X139870185Y-62518413D01*
X139886819Y-62497771D01*
X140278682Y-62105908D01*
X140758798Y-61625791D01*
X140820119Y-61592308D01*
X140822114Y-61591892D01*
X140933497Y-61569737D01*
X141079179Y-61509394D01*
X141173459Y-61446398D01*
X141240136Y-61425520D01*
X141242350Y-61425500D01*
X142357650Y-61425500D01*
X142424689Y-61445185D01*
X142426541Y-61446398D01*
X142520821Y-61509394D01*
X142520823Y-61509395D01*
X142520827Y-61509397D01*
X142666498Y-61569735D01*
X142666503Y-61569737D01*
X142821153Y-61600499D01*
X142821156Y-61600500D01*
X142821158Y-61600500D01*
X142978844Y-61600500D01*
X142978845Y-61600499D01*
X143133497Y-61569737D01*
X143279179Y-61509394D01*
X143410289Y-61421789D01*
X143521789Y-61310289D01*
X143609394Y-61179179D01*
X143669737Y-61033497D01*
X143700500Y-60878842D01*
X143700500Y-60721158D01*
X143700500Y-60721155D01*
X143700499Y-60721153D01*
X143669737Y-60566503D01*
X143669735Y-60566498D01*
X143609397Y-60420827D01*
X143609390Y-60420814D01*
X143521789Y-60289711D01*
X143521786Y-60289707D01*
X143410292Y-60178213D01*
X143410288Y-60178210D01*
X143279185Y-60090609D01*
X143279172Y-60090602D01*
X143133501Y-60030264D01*
X143133489Y-60030261D01*
X142978845Y-59999500D01*
X142978842Y-59999500D01*
X142821158Y-59999500D01*
X142821155Y-59999500D01*
X142666510Y-60030261D01*
X142666498Y-60030264D01*
X142520827Y-60090602D01*
X142520815Y-60090609D01*
X142426541Y-60153602D01*
X142359864Y-60174480D01*
X142357650Y-60174500D01*
X141242350Y-60174500D01*
X141175311Y-60154815D01*
X141173459Y-60153602D01*
X141079184Y-60090609D01*
X141079172Y-60090602D01*
X140933501Y-60030264D01*
X140933489Y-60030261D01*
X140778845Y-59999500D01*
X140778842Y-59999500D01*
X140621158Y-59999500D01*
X140621155Y-59999500D01*
X140466510Y-60030261D01*
X140466498Y-60030264D01*
X140320827Y-60090602D01*
X140320814Y-60090609D01*
X140189711Y-60178210D01*
X140189707Y-60178213D01*
X140078213Y-60289707D01*
X140078210Y-60289711D01*
X139990609Y-60420814D01*
X139990602Y-60420827D01*
X139930264Y-60566498D01*
X139930261Y-60566508D01*
X139908141Y-60677713D01*
X139875756Y-60739624D01*
X139874205Y-60741202D01*
X139576068Y-61039339D01*
X139514745Y-61072824D01*
X139445053Y-61067840D01*
X139400706Y-61039339D01*
X138846071Y-60484703D01*
X138819191Y-60444475D01*
X138809394Y-60420821D01*
X138757808Y-60343617D01*
X138721789Y-60289710D01*
X138610292Y-60178213D01*
X138610288Y-60178210D01*
X138479185Y-60090609D01*
X138479172Y-60090602D01*
X138333501Y-60030264D01*
X138333489Y-60030261D01*
X138178845Y-59999500D01*
X138178842Y-59999500D01*
X138021158Y-59999500D01*
X138021155Y-59999500D01*
X137866510Y-60030261D01*
X137866498Y-60030264D01*
X137720827Y-60090602D01*
X137720814Y-60090609D01*
X137668891Y-60125304D01*
X137602214Y-60146182D01*
X137534833Y-60127698D01*
X137531109Y-60125304D01*
X137479185Y-60090609D01*
X137479172Y-60090602D01*
X137333501Y-60030264D01*
X137333489Y-60030261D01*
X137178845Y-59999500D01*
X137178842Y-59999500D01*
X137021158Y-59999500D01*
X137021155Y-59999500D01*
X136866510Y-60030261D01*
X136866498Y-60030264D01*
X136720827Y-60090602D01*
X136720814Y-60090609D01*
X136589711Y-60178210D01*
X136589707Y-60178213D01*
X136478213Y-60289707D01*
X136478210Y-60289711D01*
X136390609Y-60420814D01*
X136390602Y-60420827D01*
X136330264Y-60566498D01*
X136330261Y-60566510D01*
X136299500Y-60721153D01*
X136299500Y-60878846D01*
X136330261Y-61033489D01*
X136330264Y-61033501D01*
X136390602Y-61179172D01*
X136390609Y-61179185D01*
X136478210Y-61310288D01*
X136478213Y-61310292D01*
X136589707Y-61421786D01*
X136589711Y-61421789D01*
X136720814Y-61509390D01*
X136720827Y-61509397D01*
X136808230Y-61545599D01*
X136866503Y-61569737D01*
X136977716Y-61591858D01*
X137039623Y-61624241D01*
X137041203Y-61625793D01*
X137238181Y-61822771D01*
X137271666Y-61884094D01*
X137274500Y-61910452D01*
X137274500Y-63687324D01*
X137254815Y-63754363D01*
X137202011Y-63800118D01*
X137132853Y-63810062D01*
X137126309Y-63808941D01*
X137078846Y-63799500D01*
X137078842Y-63799500D01*
X136921158Y-63799500D01*
X136921155Y-63799500D01*
X136766510Y-63830261D01*
X136766498Y-63830264D01*
X136620827Y-63890602D01*
X136620814Y-63890609D01*
X136489711Y-63978210D01*
X136489707Y-63978213D01*
X136378213Y-64089707D01*
X136378210Y-64089711D01*
X136327602Y-64165451D01*
X136273989Y-64210256D01*
X136204664Y-64218963D01*
X136141637Y-64188808D01*
X136104918Y-64129365D01*
X136100500Y-64096560D01*
X136100500Y-63906383D01*
X136100499Y-63906379D01*
X136085358Y-63830261D01*
X136063973Y-63722749D01*
X135992322Y-63549769D01*
X135992319Y-63549764D01*
X135992318Y-63549762D01*
X135921577Y-63443891D01*
X135900699Y-63377213D01*
X135919183Y-63309833D01*
X135921577Y-63306109D01*
X135992318Y-63200237D01*
X135992319Y-63200235D01*
X135992322Y-63200231D01*
X136063973Y-63027251D01*
X136100500Y-62843616D01*
X136100500Y-62656384D01*
X136063973Y-62472749D01*
X135992322Y-62299769D01*
X135992319Y-62299764D01*
X135992318Y-62299762D01*
X135921577Y-62193891D01*
X135900699Y-62127213D01*
X135919183Y-62059833D01*
X135921577Y-62056109D01*
X135992318Y-61950237D01*
X135992319Y-61950235D01*
X135992322Y-61950231D01*
X136063973Y-61777251D01*
X136100500Y-61593616D01*
X136100500Y-61406384D01*
X136063973Y-61222749D01*
X135992322Y-61049769D01*
X135992319Y-61049764D01*
X135992318Y-61049762D01*
X135921577Y-60943891D01*
X135900699Y-60877213D01*
X135919183Y-60809833D01*
X135921577Y-60806109D01*
X135992318Y-60700237D01*
X135992319Y-60700235D01*
X135992322Y-60700231D01*
X136063973Y-60527251D01*
X136100500Y-60343616D01*
X136100500Y-60156384D01*
X136063973Y-59972749D01*
X135992322Y-59799769D01*
X135921274Y-59693439D01*
X135900397Y-59626763D01*
X135918881Y-59559383D01*
X135921276Y-59555657D01*
X135991874Y-59450001D01*
X135991880Y-59449991D01*
X136063492Y-59277103D01*
X136063493Y-59277100D01*
X136068884Y-59250000D01*
X135066988Y-59250000D01*
X135084205Y-59240060D01*
X135140060Y-59184205D01*
X135179556Y-59115796D01*
X135200000Y-59039496D01*
X135200000Y-58960504D01*
X135179556Y-58884204D01*
X135140060Y-58815795D01*
X135084205Y-58759940D01*
X135066988Y-58750000D01*
X135150000Y-58750000D01*
X136068884Y-58750000D01*
X136068884Y-58749999D01*
X136063493Y-58722899D01*
X136063492Y-58722896D01*
X135991880Y-58550008D01*
X135991875Y-58549999D01*
X135887913Y-58394410D01*
X135887910Y-58394406D01*
X135755593Y-58262089D01*
X135755589Y-58262086D01*
X135600000Y-58158124D01*
X135599991Y-58158119D01*
X135427105Y-58086508D01*
X135427097Y-58086506D01*
X135243570Y-58050000D01*
X135150000Y-58050000D01*
X135150000Y-58750000D01*
X135066988Y-58750000D01*
X135015796Y-58720444D01*
X134939496Y-58700000D01*
X134860504Y-58700000D01*
X134784204Y-58720444D01*
X134715795Y-58759940D01*
X134659940Y-58815795D01*
X134620444Y-58884204D01*
X134600000Y-58960504D01*
X134600000Y-59039496D01*
X134620444Y-59115796D01*
X134659940Y-59184205D01*
X134715795Y-59240060D01*
X134733012Y-59250000D01*
X133731116Y-59250000D01*
X133736506Y-59277100D01*
X133736507Y-59277103D01*
X133808119Y-59449991D01*
X133808127Y-59450005D01*
X133878723Y-59555660D01*
X133899601Y-59622337D01*
X133881116Y-59689717D01*
X133878723Y-59693440D01*
X133807684Y-59799757D01*
X133807676Y-59799771D01*
X133736027Y-59972748D01*
X133736025Y-59972756D01*
X133699500Y-60156379D01*
X132450500Y-60156379D01*
X132450500Y-58749999D01*
X133731115Y-58749999D01*
X133731116Y-58750000D01*
X134650000Y-58750000D01*
X134650000Y-58050000D01*
X134556430Y-58050000D01*
X134372902Y-58086506D01*
X134372894Y-58086508D01*
X134200008Y-58158119D01*
X134199999Y-58158124D01*
X134044410Y-58262086D01*
X134044406Y-58262089D01*
X133912089Y-58394406D01*
X133912086Y-58394410D01*
X133808124Y-58549999D01*
X133808119Y-58550008D01*
X133736507Y-58722896D01*
X133736506Y-58722899D01*
X133731115Y-58749999D01*
X132450500Y-58749999D01*
X132450500Y-57539770D01*
X132470185Y-57472731D01*
X132522989Y-57426976D01*
X132592147Y-57417032D01*
X132598682Y-57418151D01*
X132643047Y-57426976D01*
X132761306Y-57450500D01*
X132761309Y-57450500D01*
X132938693Y-57450500D01*
X132938694Y-57450499D01*
X132996682Y-57438964D01*
X133112658Y-57415896D01*
X133112661Y-57415894D01*
X133112666Y-57415894D01*
X133276547Y-57348013D01*
X133424035Y-57249464D01*
X133549464Y-57124035D01*
X133648013Y-56976547D01*
X133715894Y-56812666D01*
X133750500Y-56638691D01*
X133750500Y-56597351D01*
X133770185Y-56530312D01*
X133822989Y-56484557D01*
X133861247Y-56474061D01*
X133907483Y-56469091D01*
X134042331Y-56418796D01*
X134157546Y-56332546D01*
X134243796Y-56217331D01*
X134266795Y-56155668D01*
X134308665Y-56099734D01*
X134374129Y-56075316D01*
X134382977Y-56075000D01*
X147400500Y-56075000D01*
X147467539Y-56094685D01*
G37*
%TD.AperFunction*%
%TD*%
M02*
