M48
; DRILL file {KiCad 9.0.0} date 2025-03-18T13:10:15-0400
; FORMAT={-:-/ absolute / metric / decimal}
; #@! TF.CreationDate,2025-03-18T13:10:15-04:00
; #@! TF.GenerationSoftware,Kicad,Pcbnew,9.0.0
; #@! TF.FileFunction,Plated,1,2,PTH
FMAT,2
METRIC
; #@! TA.AperFunction,Plated,PTH,ViaDrill
T1C0.200
; #@! TA.AperFunction,Plated,PTH,ViaDrill
T2C0.300
; #@! TA.AperFunction,Plated,PTH,ComponentDrill
T3C0.900
; #@! TA.AperFunction,Plated,PTH,ComponentDrill
T4C0.920
; #@! TA.AperFunction,Plated,PTH,ComponentDrill
T5C2.300
%
G90
G05
T1
X123.4Y-76.3
X123.4Y-87.4
X123.5Y-66.9
X123.7Y-79.8
X136.1Y-76.9
X136.4Y-67.7
X136.4Y-79.6
X136.8Y-87.5
T2
X120.25Y-69.0
X120.449Y-77.449
X121.051Y-78.051
X122.75Y-85.5
X123.333Y-83.417
X137.75Y-83.0
X139.449Y-79.551
X140.051Y-78.949
X142.5Y-73.75
X142.949Y-75.551
X143.0Y-76.75
X143.0Y-84.5
X143.551Y-74.949
T3
X146.8Y-75.02
X146.8Y-77.52
X148.8Y-75.02
X148.8Y-77.52
T4
X113.25Y-72.0
X113.25Y-74.5
X113.25Y-76.5
X113.25Y-79.0
T5
X110.54Y-68.93
X110.54Y-82.07
X151.5Y-70.25
X151.5Y-82.29
M30
