%TF.GenerationSoftware,KiCad,Pcbnew,9.0.0*%
%TF.CreationDate,2025-03-18T13:10:11-04:00*%
%TF.ProjectId,Tarea_2_Aislador_USB,54617265-615f-4325-9f41-69736c61646f,rev?*%
%TF.SameCoordinates,Original*%
%TF.FileFunction,Copper,L2,Bot*%
%TF.FilePolarity,Positive*%
%FSLAX46Y46*%
G04 Gerber Fmt 4.6, Leading zero omitted, Abs format (unit mm)*
G04 Created by KiCad (PCBNEW 9.0.0) date 2025-03-18 13:10:11*
%MOMM*%
%LPD*%
G01*
G04 APERTURE LIST*
%TA.AperFunction,ComponentPad*%
%ADD10R,1.400000X1.400000*%
%TD*%
%TA.AperFunction,ComponentPad*%
%ADD11C,1.400000*%
%TD*%
%TA.AperFunction,ComponentPad*%
%ADD12C,3.450000*%
%TD*%
%TA.AperFunction,ComponentPad*%
%ADD13R,1.431000X1.431000*%
%TD*%
%TA.AperFunction,ComponentPad*%
%ADD14C,1.431000*%
%TD*%
%TA.AperFunction,ViaPad*%
%ADD15C,0.600000*%
%TD*%
%TA.AperFunction,ViaPad*%
%ADD16C,0.400000*%
%TD*%
%TA.AperFunction,Conductor*%
%ADD17C,0.508000*%
%TD*%
%TA.AperFunction,Conductor*%
%ADD18C,0.300000*%
%TD*%
%TA.AperFunction,Conductor*%
%ADD19C,0.200000*%
%TD*%
G04 APERTURE END LIST*
D10*
%TO.P,J2,1,1*%
%TO.N,VISO*%
X146800000Y-75020000D03*
D11*
%TO.P,J2,2,2*%
%TO.N,/USB_-_21*%
X146800000Y-77520000D03*
%TO.P,J2,3,3*%
%TO.N,/USB_+_21*%
X148800000Y-77520000D03*
%TO.P,J2,4,4*%
%TO.N,GND_B*%
X148800000Y-75020000D03*
D12*
%TO.P,J2,MH1,MH1*%
X151500000Y-70250000D03*
%TO.P,J2,MH2,MH2*%
X151500000Y-82290000D03*
%TD*%
D13*
%TO.P,J1,1,1*%
%TO.N,+5V*%
X113250000Y-72000000D03*
D14*
%TO.P,J1,2,2*%
%TO.N,/USB_-_11*%
X113250000Y-74500000D03*
%TO.P,J1,3,3*%
%TO.N,/USB_+_11*%
X113250000Y-76500000D03*
%TO.P,J1,4,4*%
%TO.N,GND_A*%
X113250000Y-79000000D03*
D12*
%TO.P,J1,MH1,MH1*%
X110540000Y-68930000D03*
%TO.P,J1,MH2,MH2*%
X110540000Y-82070000D03*
%TD*%
D15*
%TO.N,+5V*%
X123333364Y-83416636D03*
X122750000Y-85500000D03*
D16*
%TO.N,GND_A*%
X123400000Y-87400000D03*
X123400000Y-76300000D03*
X123500000Y-66900000D03*
D15*
X120250000Y-69000000D03*
D16*
X123700000Y-79800000D03*
%TO.N,GND_B*%
X136100000Y-76900000D03*
X136400000Y-67700000D03*
X136400000Y-79600000D03*
X136800000Y-87500000D03*
D15*
%TO.N,VISO*%
X143000000Y-76750000D03*
X143000000Y-84500000D03*
%TO.N,Net-(IC3-PIN)*%
X142500000Y-73750000D03*
X137750000Y-83000000D03*
%TO.N,/USB_+_11*%
X120449479Y-77449479D03*
%TO.N,/USB_+_21*%
X142949479Y-75550521D03*
X140050521Y-78949479D03*
%TO.N,/USB_-_21*%
X143550521Y-74949479D03*
X139449479Y-79550521D03*
%TO.N,/USB_-_11*%
X121050521Y-78050521D03*
%TD*%
D17*
%TO.N,+5V*%
X122750000Y-85500000D02*
X122750000Y-84000000D01*
X122750000Y-84000000D02*
X123333364Y-83416636D01*
%TO.N,VISO*%
X143000000Y-84500000D02*
X143000000Y-76750000D01*
X143000000Y-76750000D02*
X144730000Y-75020000D01*
X144730000Y-75020000D02*
X146800000Y-75020000D01*
D18*
%TO.N,Net-(IC3-PIN)*%
X142500000Y-73750000D02*
X137750000Y-78500000D01*
X137750000Y-78500000D02*
X137750000Y-83000000D01*
D19*
%TO.N,/USB_+_11*%
X120449479Y-77449479D02*
X118725001Y-75725001D01*
X118725001Y-75725001D02*
X114024999Y-75725001D01*
X114024999Y-75725001D02*
X113250000Y-76500000D01*
%TO.N,/USB_+_21*%
X139899480Y-78600520D02*
X142949479Y-75550521D01*
X140050521Y-78949479D02*
X139899480Y-78798438D01*
X139899480Y-78798438D02*
X139899480Y-78600520D01*
%TO.N,/USB_-_21*%
X142348479Y-75301578D02*
X142700536Y-74949521D01*
X139449479Y-78414125D02*
X142348479Y-75515125D01*
X142700536Y-74949521D02*
X142914083Y-74949521D01*
X142914083Y-74949521D02*
X142914125Y-74949479D01*
X142914125Y-74949479D02*
X143550521Y-74949479D01*
X139449479Y-79550521D02*
X139449479Y-78414125D01*
X142348479Y-75515125D02*
X142348479Y-75301578D01*
%TO.N,/USB_-_11*%
X114024999Y-75274999D02*
X113250000Y-74500000D01*
X121050521Y-78050521D02*
X121050521Y-77414125D01*
X120698422Y-76848479D02*
X120484875Y-76848479D01*
X121050521Y-77414125D02*
X121050479Y-77414083D01*
X120484875Y-76848479D02*
X118911395Y-75274999D01*
X121050479Y-77200536D02*
X120698422Y-76848479D01*
X121050479Y-77414083D02*
X121050479Y-77200536D01*
X118911395Y-75274999D02*
X114024999Y-75274999D01*
%TD*%
%TA.AperFunction,Conductor*%
%TO.N,GND_A*%
G36*
X126443039Y-65520185D02*
G01*
X126488794Y-65572989D01*
X126500000Y-65624500D01*
X126500000Y-88375500D01*
X126480315Y-88442539D01*
X126427511Y-88488294D01*
X126376000Y-88499500D01*
X107124000Y-88499500D01*
X107056961Y-88479815D01*
X107011206Y-88427011D01*
X107000000Y-88375500D01*
X107000000Y-85421158D01*
X121949500Y-85421158D01*
X121949500Y-85428484D01*
X121949500Y-85578846D01*
X121980261Y-85733489D01*
X121980264Y-85733501D01*
X122040602Y-85879172D01*
X122040609Y-85879185D01*
X122128210Y-86010288D01*
X122128213Y-86010292D01*
X122239707Y-86121786D01*
X122239711Y-86121789D01*
X122370814Y-86209390D01*
X122370827Y-86209397D01*
X122516498Y-86269735D01*
X122516503Y-86269737D01*
X122671153Y-86300499D01*
X122671156Y-86300500D01*
X122671158Y-86300500D01*
X122828844Y-86300500D01*
X122828845Y-86300499D01*
X122983497Y-86269737D01*
X123129179Y-86209394D01*
X123260289Y-86121789D01*
X123371789Y-86010289D01*
X123459394Y-85879179D01*
X123519737Y-85733497D01*
X123550500Y-85578842D01*
X123550500Y-85421158D01*
X123550500Y-85421155D01*
X123550499Y-85421153D01*
X123519739Y-85266511D01*
X123519738Y-85266508D01*
X123519737Y-85266503D01*
X123513937Y-85252501D01*
X123504500Y-85205053D01*
X123504500Y-84363885D01*
X123513144Y-84334444D01*
X123519668Y-84304458D01*
X123523422Y-84299442D01*
X123524185Y-84296846D01*
X123540815Y-84276208D01*
X123658315Y-84158707D01*
X123698546Y-84131827D01*
X123712543Y-84126030D01*
X123843653Y-84038425D01*
X123955153Y-83926925D01*
X124042758Y-83795815D01*
X124049342Y-83779921D01*
X124103099Y-83650137D01*
X124103101Y-83650133D01*
X124133864Y-83495478D01*
X124133864Y-83337794D01*
X124133864Y-83337791D01*
X124133863Y-83337789D01*
X124110433Y-83220000D01*
X124103101Y-83183139D01*
X124057995Y-83074242D01*
X124042761Y-83037463D01*
X124042754Y-83037450D01*
X123955153Y-82906347D01*
X123955150Y-82906343D01*
X123843656Y-82794849D01*
X123843652Y-82794846D01*
X123712549Y-82707245D01*
X123712536Y-82707238D01*
X123566865Y-82646900D01*
X123566853Y-82646897D01*
X123412209Y-82616136D01*
X123412206Y-82616136D01*
X123254522Y-82616136D01*
X123254519Y-82616136D01*
X123099874Y-82646897D01*
X123099862Y-82646900D01*
X122954191Y-82707238D01*
X122954178Y-82707245D01*
X122823075Y-82794846D01*
X122823071Y-82794849D01*
X122711577Y-82906343D01*
X122711574Y-82906347D01*
X122623973Y-83037450D01*
X122623968Y-83037459D01*
X122618170Y-83051458D01*
X122591291Y-83091683D01*
X122163943Y-83519030D01*
X122163942Y-83519031D01*
X122081368Y-83642614D01*
X122048053Y-83723045D01*
X122026938Y-83774022D01*
X122026938Y-83774023D01*
X122024496Y-83779917D01*
X122024492Y-83779929D01*
X121995499Y-83925685D01*
X121995499Y-84080425D01*
X121995500Y-84080446D01*
X121995500Y-85205053D01*
X121994021Y-85212484D01*
X121992628Y-85231584D01*
X121990272Y-85242336D01*
X121980263Y-85266503D01*
X121949500Y-85421158D01*
X107000000Y-85421158D01*
X107000000Y-81924172D01*
X108315000Y-81924172D01*
X108315000Y-82215827D01*
X108315001Y-82215844D01*
X108353069Y-82505003D01*
X108428562Y-82786744D01*
X108540171Y-83056195D01*
X108540179Y-83056211D01*
X108686006Y-83308788D01*
X108686017Y-83308804D01*
X108861009Y-83536857D01*
X109627423Y-82770443D01*
X109662829Y-82819175D01*
X109790825Y-82947171D01*
X109839555Y-82982575D01*
X109073141Y-83748989D01*
X109301203Y-83923987D01*
X109301211Y-83923993D01*
X109553788Y-84069820D01*
X109553804Y-84069828D01*
X109823255Y-84181437D01*
X110104996Y-84256930D01*
X110394155Y-84294998D01*
X110394173Y-84295000D01*
X110685827Y-84295000D01*
X110685844Y-84294998D01*
X110975003Y-84256930D01*
X111256744Y-84181437D01*
X111526195Y-84069828D01*
X111526211Y-84069820D01*
X111778788Y-83923993D01*
X111778796Y-83923987D01*
X112006857Y-83748989D01*
X111240443Y-82982575D01*
X111289175Y-82947171D01*
X111417171Y-82819175D01*
X111452575Y-82770443D01*
X112218989Y-83536857D01*
X112393987Y-83308796D01*
X112393993Y-83308788D01*
X112539820Y-83056211D01*
X112539828Y-83056195D01*
X112651437Y-82786744D01*
X112726930Y-82505003D01*
X112764998Y-82215844D01*
X112765000Y-82215827D01*
X112765000Y-81924172D01*
X112764998Y-81924155D01*
X112726930Y-81634996D01*
X112651437Y-81353255D01*
X112539828Y-81083804D01*
X112539820Y-81083788D01*
X112393993Y-80831211D01*
X112393987Y-80831203D01*
X112218989Y-80603141D01*
X111452575Y-81369555D01*
X111417171Y-81320825D01*
X111289175Y-81192829D01*
X111240443Y-81157423D01*
X112006857Y-80391009D01*
X112006857Y-80391008D01*
X111778804Y-80216017D01*
X111778788Y-80216006D01*
X111526211Y-80070179D01*
X111526195Y-80070171D01*
X111421411Y-80026769D01*
X111256744Y-79958562D01*
X110975003Y-79883069D01*
X110685844Y-79845001D01*
X110685827Y-79845000D01*
X110394173Y-79845000D01*
X110394155Y-79845001D01*
X110104996Y-79883069D01*
X109823255Y-79958562D01*
X109553804Y-80070171D01*
X109553788Y-80070179D01*
X109301211Y-80216006D01*
X109301195Y-80216017D01*
X109073141Y-80391008D01*
X109073141Y-80391009D01*
X109839556Y-81157424D01*
X109790825Y-81192829D01*
X109662829Y-81320825D01*
X109627424Y-81369555D01*
X108861009Y-80603141D01*
X108861008Y-80603141D01*
X108686017Y-80831195D01*
X108686006Y-80831211D01*
X108540179Y-81083788D01*
X108540171Y-81083804D01*
X108428562Y-81353255D01*
X108353069Y-81634996D01*
X108315001Y-81924155D01*
X108315000Y-81924172D01*
X107000000Y-81924172D01*
X107000000Y-71236635D01*
X112034000Y-71236635D01*
X112034000Y-72763370D01*
X112034001Y-72763376D01*
X112040408Y-72822983D01*
X112090702Y-72957828D01*
X112090706Y-72957835D01*
X112176952Y-73073044D01*
X112176955Y-73073047D01*
X112292164Y-73159293D01*
X112292171Y-73159297D01*
X112427017Y-73209591D01*
X112427016Y-73209591D01*
X112433944Y-73210335D01*
X112486627Y-73216000D01*
X112575027Y-73215999D01*
X112642063Y-73235683D01*
X112687819Y-73288486D01*
X112697763Y-73357645D01*
X112668739Y-73421201D01*
X112631324Y-73450482D01*
X112612673Y-73459985D01*
X112457835Y-73572481D01*
X112457830Y-73572485D01*
X112322485Y-73707830D01*
X112322481Y-73707835D01*
X112209986Y-73862673D01*
X112123090Y-74033215D01*
X112063941Y-74215255D01*
X112034000Y-74404299D01*
X112034000Y-74595700D01*
X112063941Y-74784744D01*
X112123090Y-74966784D01*
X112209986Y-75137326D01*
X112322481Y-75292164D01*
X112322485Y-75292169D01*
X112442635Y-75412319D01*
X112476120Y-75473642D01*
X112471136Y-75543334D01*
X112442635Y-75587681D01*
X112322485Y-75707830D01*
X112322481Y-75707835D01*
X112209986Y-75862673D01*
X112123090Y-76033215D01*
X112063941Y-76215255D01*
X112034000Y-76404299D01*
X112034000Y-76595700D01*
X112063941Y-76784744D01*
X112063942Y-76784747D01*
X112123089Y-76966782D01*
X112201912Y-77121481D01*
X112209986Y-77137326D01*
X112322481Y-77292164D01*
X112322485Y-77292169D01*
X112457830Y-77427514D01*
X112457835Y-77427518D01*
X112555141Y-77498214D01*
X112612677Y-77540016D01*
X112783218Y-77626911D01*
X112799901Y-77632331D01*
X112857575Y-77671766D01*
X112884775Y-77736124D01*
X112872863Y-77804970D01*
X112825620Y-77856448D01*
X112799906Y-77868192D01*
X112783406Y-77873553D01*
X112612935Y-77960413D01*
X112502663Y-78040529D01*
X112502662Y-78040531D01*
X113047743Y-78585611D01*
X112967554Y-78631909D01*
X112881909Y-78717554D01*
X112835611Y-78797742D01*
X112290531Y-78252662D01*
X112290529Y-78252663D01*
X112210413Y-78362935D01*
X112123553Y-78533407D01*
X112064428Y-78715373D01*
X112034500Y-78904332D01*
X112034500Y-79095667D01*
X112064428Y-79284626D01*
X112123553Y-79466592D01*
X112210411Y-79637061D01*
X112290531Y-79747335D01*
X112290532Y-79747336D01*
X112835611Y-79202256D01*
X112881909Y-79282446D01*
X112967554Y-79368091D01*
X113047743Y-79414388D01*
X112502662Y-79959467D01*
X112612938Y-80039588D01*
X112783407Y-80126446D01*
X112965373Y-80185571D01*
X113154333Y-80215500D01*
X113345667Y-80215500D01*
X113534626Y-80185571D01*
X113716592Y-80126446D01*
X113887060Y-80039589D01*
X113997335Y-79959467D01*
X113997336Y-79959467D01*
X113452256Y-79414388D01*
X113532446Y-79368091D01*
X113618091Y-79282446D01*
X113664388Y-79202257D01*
X114209467Y-79747336D01*
X114209467Y-79747335D01*
X114289589Y-79637060D01*
X114376446Y-79466592D01*
X114435571Y-79284626D01*
X114465500Y-79095667D01*
X114465500Y-78904332D01*
X114435571Y-78715373D01*
X114376446Y-78533407D01*
X114289588Y-78362938D01*
X114209467Y-78252663D01*
X114209467Y-78252662D01*
X113664387Y-78797742D01*
X113618091Y-78717554D01*
X113532446Y-78631909D01*
X113452256Y-78585611D01*
X113997336Y-78040532D01*
X113997335Y-78040531D01*
X113887061Y-77960411D01*
X113716590Y-77873551D01*
X113700095Y-77868192D01*
X113642420Y-77828754D01*
X113615223Y-77764395D01*
X113627139Y-77695549D01*
X113674384Y-77644074D01*
X113700089Y-77632334D01*
X113716782Y-77626911D01*
X113887323Y-77540016D01*
X114042171Y-77427513D01*
X114177513Y-77292171D01*
X114290016Y-77137323D01*
X114376911Y-76966782D01*
X114436058Y-76784747D01*
X114466000Y-76595701D01*
X114466000Y-76449501D01*
X114485685Y-76382462D01*
X114538489Y-76336707D01*
X114590000Y-76325501D01*
X118424904Y-76325501D01*
X118491943Y-76345186D01*
X118512585Y-76361820D01*
X119614904Y-77464139D01*
X119648389Y-77525462D01*
X119648840Y-77527628D01*
X119679740Y-77682970D01*
X119679743Y-77682980D01*
X119740081Y-77828651D01*
X119740088Y-77828664D01*
X119827689Y-77959767D01*
X119827692Y-77959771D01*
X119939186Y-78071265D01*
X119939190Y-78071268D01*
X120070293Y-78158869D01*
X120070306Y-78158876D01*
X120214350Y-78218540D01*
X120268754Y-78262380D01*
X120281459Y-78285649D01*
X120341123Y-78429693D01*
X120341130Y-78429706D01*
X120428731Y-78560809D01*
X120428734Y-78560813D01*
X120540228Y-78672307D01*
X120540232Y-78672310D01*
X120671335Y-78759911D01*
X120671348Y-78759918D01*
X120817019Y-78820256D01*
X120817024Y-78820258D01*
X120971674Y-78851020D01*
X120971677Y-78851021D01*
X120971679Y-78851021D01*
X121129365Y-78851021D01*
X121129366Y-78851020D01*
X121284018Y-78820258D01*
X121429700Y-78759915D01*
X121560810Y-78672310D01*
X121672310Y-78560810D01*
X121759915Y-78429700D01*
X121820258Y-78284018D01*
X121851021Y-78129363D01*
X121851021Y-77971679D01*
X121851021Y-77971676D01*
X121851020Y-77971674D01*
X121822572Y-77828658D01*
X121820258Y-77817024D01*
X121798459Y-77764395D01*
X121759918Y-77671348D01*
X121759911Y-77671335D01*
X121671919Y-77539646D01*
X121666273Y-77521616D01*
X121656054Y-77505725D01*
X121651593Y-77474732D01*
X121651041Y-77472968D01*
X121651021Y-77470791D01*
X121651021Y-77335068D01*
X121650981Y-77334919D01*
X121650979Y-77326669D01*
X121650980Y-77326662D01*
X121650979Y-77326633D01*
X121650979Y-77289596D01*
X121650980Y-77289583D01*
X121650980Y-77121481D01*
X121650980Y-77121479D01*
X121610056Y-76968751D01*
X121530999Y-76831820D01*
X121178943Y-76479764D01*
X121178942Y-76479763D01*
X121067138Y-76367959D01*
X120980326Y-76317839D01*
X120980326Y-76317838D01*
X120980322Y-76317837D01*
X120930207Y-76288902D01*
X120777476Y-76247977D01*
X120769419Y-76246917D01*
X120769863Y-76243541D01*
X120717933Y-76228293D01*
X120697291Y-76211659D01*
X119398985Y-74913354D01*
X119398983Y-74913351D01*
X119280112Y-74794480D01*
X119280104Y-74794474D01*
X119171523Y-74731785D01*
X119171523Y-74731786D01*
X119143178Y-74715421D01*
X119087276Y-74700442D01*
X118990452Y-74674498D01*
X118832338Y-74674498D01*
X118824742Y-74674498D01*
X118824726Y-74674499D01*
X114590000Y-74674499D01*
X114522961Y-74654814D01*
X114477206Y-74602010D01*
X114466000Y-74550499D01*
X114466000Y-74404299D01*
X114436058Y-74215255D01*
X114436058Y-74215253D01*
X114376911Y-74033218D01*
X114290016Y-73862677D01*
X114275641Y-73842892D01*
X114177518Y-73707835D01*
X114177514Y-73707830D01*
X114042169Y-73572485D01*
X114042164Y-73572481D01*
X113887326Y-73459986D01*
X113887325Y-73459985D01*
X113887323Y-73459984D01*
X113868677Y-73450483D01*
X113817882Y-73402509D01*
X113801087Y-73334688D01*
X113823624Y-73268553D01*
X113878340Y-73225102D01*
X113924972Y-73215999D01*
X114013372Y-73215999D01*
X114072983Y-73209591D01*
X114207831Y-73159296D01*
X114323046Y-73073046D01*
X114409296Y-72957831D01*
X114459591Y-72822983D01*
X114466000Y-72763373D01*
X114465999Y-71236628D01*
X114459591Y-71177017D01*
X114451379Y-71155000D01*
X114409297Y-71042171D01*
X114409293Y-71042164D01*
X114323047Y-70926955D01*
X114323044Y-70926952D01*
X114207835Y-70840706D01*
X114207828Y-70840702D01*
X114072982Y-70790408D01*
X114072983Y-70790408D01*
X114013383Y-70784001D01*
X114013381Y-70784000D01*
X114013373Y-70784000D01*
X114013364Y-70784000D01*
X112486629Y-70784000D01*
X112486623Y-70784001D01*
X112427016Y-70790408D01*
X112292171Y-70840702D01*
X112292164Y-70840706D01*
X112176955Y-70926952D01*
X112176952Y-70926955D01*
X112090706Y-71042164D01*
X112090702Y-71042171D01*
X112040408Y-71177017D01*
X112034001Y-71236616D01*
X112034001Y-71236623D01*
X112034000Y-71236635D01*
X107000000Y-71236635D01*
X107000000Y-68784172D01*
X108315000Y-68784172D01*
X108315000Y-69075827D01*
X108315001Y-69075844D01*
X108353069Y-69365003D01*
X108428562Y-69646744D01*
X108540171Y-69916195D01*
X108540179Y-69916211D01*
X108686006Y-70168788D01*
X108686017Y-70168804D01*
X108861009Y-70396857D01*
X109627423Y-69630443D01*
X109662829Y-69679175D01*
X109790825Y-69807171D01*
X109839555Y-69842575D01*
X109073141Y-70608989D01*
X109301203Y-70783987D01*
X109301211Y-70783993D01*
X109553788Y-70929820D01*
X109553804Y-70929828D01*
X109823255Y-71041437D01*
X110104996Y-71116930D01*
X110394155Y-71154998D01*
X110394173Y-71155000D01*
X110685827Y-71155000D01*
X110685844Y-71154998D01*
X110975005Y-71116930D01*
X110987669Y-71113536D01*
X110987690Y-71113531D01*
X111256744Y-71041437D01*
X111526195Y-70929828D01*
X111526211Y-70929820D01*
X111778788Y-70783993D01*
X111778796Y-70783987D01*
X112006857Y-70608989D01*
X111240443Y-69842575D01*
X111289175Y-69807171D01*
X111417171Y-69679175D01*
X111452575Y-69630443D01*
X112218989Y-70396857D01*
X112393987Y-70168796D01*
X112393993Y-70168788D01*
X112539820Y-69916211D01*
X112539828Y-69916195D01*
X112651437Y-69646744D01*
X112726930Y-69365003D01*
X112764998Y-69075844D01*
X112765000Y-69075827D01*
X112765000Y-68784172D01*
X112764998Y-68784155D01*
X112726930Y-68494996D01*
X112651437Y-68213255D01*
X112539828Y-67943804D01*
X112539820Y-67943788D01*
X112393993Y-67691211D01*
X112393987Y-67691203D01*
X112218989Y-67463141D01*
X111452575Y-68229555D01*
X111417171Y-68180825D01*
X111289175Y-68052829D01*
X111240443Y-68017423D01*
X112006857Y-67251009D01*
X112006857Y-67251008D01*
X111778804Y-67076017D01*
X111778788Y-67076006D01*
X111526211Y-66930179D01*
X111526195Y-66930171D01*
X111256744Y-66818562D01*
X110975003Y-66743069D01*
X110685844Y-66705001D01*
X110685827Y-66705000D01*
X110394173Y-66705000D01*
X110394155Y-66705001D01*
X110104996Y-66743069D01*
X109823255Y-66818562D01*
X109553804Y-66930171D01*
X109553788Y-66930179D01*
X109301211Y-67076006D01*
X109301195Y-67076017D01*
X109073141Y-67251008D01*
X109073141Y-67251009D01*
X109839556Y-68017424D01*
X109790825Y-68052829D01*
X109662829Y-68180825D01*
X109627424Y-68229555D01*
X108861009Y-67463141D01*
X108861008Y-67463141D01*
X108686017Y-67691195D01*
X108686006Y-67691211D01*
X108540179Y-67943788D01*
X108540171Y-67943804D01*
X108428562Y-68213255D01*
X108353069Y-68494996D01*
X108315001Y-68784155D01*
X108315000Y-68784172D01*
X107000000Y-68784172D01*
X107000000Y-65624500D01*
X107019685Y-65557461D01*
X107072489Y-65511706D01*
X107124000Y-65500500D01*
X126376000Y-65500500D01*
X126443039Y-65520185D01*
G37*
%TD.AperFunction*%
%TD*%
%TA.AperFunction,Conductor*%
%TO.N,GND_B*%
G36*
X154943039Y-65520185D02*
G01*
X154988794Y-65572989D01*
X155000000Y-65624500D01*
X155000000Y-88375500D01*
X154980315Y-88442539D01*
X154927511Y-88488294D01*
X154876000Y-88499500D01*
X133624000Y-88499500D01*
X133556961Y-88479815D01*
X133511206Y-88427011D01*
X133500000Y-88375500D01*
X133500000Y-82921153D01*
X136949500Y-82921153D01*
X136949500Y-83078846D01*
X136980261Y-83233489D01*
X136980264Y-83233501D01*
X137040602Y-83379172D01*
X137040609Y-83379185D01*
X137128210Y-83510288D01*
X137128213Y-83510292D01*
X137239707Y-83621786D01*
X137239711Y-83621789D01*
X137370814Y-83709390D01*
X137370827Y-83709397D01*
X137516498Y-83769735D01*
X137516503Y-83769737D01*
X137671153Y-83800499D01*
X137671156Y-83800500D01*
X137671158Y-83800500D01*
X137828844Y-83800500D01*
X137828845Y-83800499D01*
X137983497Y-83769737D01*
X138129179Y-83709394D01*
X138260289Y-83621789D01*
X138371789Y-83510289D01*
X138459394Y-83379179D01*
X138519737Y-83233497D01*
X138550500Y-83078842D01*
X138550500Y-82921158D01*
X138550500Y-82921155D01*
X138550499Y-82921153D01*
X138519738Y-82766510D01*
X138519737Y-82766503D01*
X138519735Y-82766498D01*
X138459397Y-82620828D01*
X138459396Y-82620827D01*
X138459394Y-82620821D01*
X138421396Y-82563953D01*
X138400520Y-82497276D01*
X138400500Y-82495064D01*
X138400500Y-78820807D01*
X138420185Y-78753768D01*
X138436815Y-78733130D01*
X138637299Y-78532646D01*
X138698621Y-78499162D01*
X138768313Y-78504146D01*
X138824246Y-78546018D01*
X138848663Y-78611482D01*
X138848979Y-78620328D01*
X138848979Y-78970755D01*
X138829294Y-79037794D01*
X138828081Y-79039646D01*
X138740088Y-79171335D01*
X138740081Y-79171348D01*
X138679743Y-79317019D01*
X138679740Y-79317031D01*
X138648979Y-79471674D01*
X138648979Y-79629367D01*
X138679740Y-79784010D01*
X138679743Y-79784022D01*
X138740081Y-79929693D01*
X138740088Y-79929706D01*
X138827689Y-80060809D01*
X138827692Y-80060813D01*
X138939186Y-80172307D01*
X138939190Y-80172310D01*
X139070293Y-80259911D01*
X139070306Y-80259918D01*
X139143364Y-80290179D01*
X139215982Y-80320258D01*
X139370632Y-80351020D01*
X139370635Y-80351021D01*
X139370637Y-80351021D01*
X139528323Y-80351021D01*
X139528324Y-80351020D01*
X139682976Y-80320258D01*
X139828658Y-80259915D01*
X139959768Y-80172310D01*
X140071268Y-80060810D01*
X140158873Y-79929700D01*
X140158874Y-79929697D01*
X140158876Y-79929694D01*
X140218540Y-79785649D01*
X140262380Y-79731245D01*
X140285645Y-79718541D01*
X140350611Y-79691632D01*
X140429694Y-79658876D01*
X140429697Y-79658874D01*
X140429700Y-79658873D01*
X140560810Y-79571268D01*
X140672310Y-79459768D01*
X140759915Y-79328658D01*
X140820258Y-79182976D01*
X140851021Y-79028321D01*
X140851021Y-78870637D01*
X140851021Y-78870634D01*
X140851020Y-78870632D01*
X140841109Y-78820807D01*
X140820258Y-78715982D01*
X140797191Y-78660295D01*
X140789722Y-78590828D01*
X140820996Y-78528348D01*
X140824042Y-78525191D01*
X142033820Y-77315413D01*
X142095142Y-77281930D01*
X142164834Y-77286914D01*
X142220767Y-77328786D01*
X142245184Y-77394250D01*
X142245500Y-77403096D01*
X142245500Y-84205053D01*
X142236062Y-84252501D01*
X142230263Y-84266503D01*
X142230262Y-84266506D01*
X142230260Y-84266511D01*
X142199500Y-84421153D01*
X142199500Y-84578846D01*
X142230261Y-84733489D01*
X142230264Y-84733501D01*
X142290602Y-84879172D01*
X142290609Y-84879185D01*
X142378210Y-85010288D01*
X142378213Y-85010292D01*
X142489707Y-85121786D01*
X142489711Y-85121789D01*
X142620814Y-85209390D01*
X142620827Y-85209397D01*
X142766498Y-85269735D01*
X142766503Y-85269737D01*
X142921153Y-85300499D01*
X142921156Y-85300500D01*
X142921158Y-85300500D01*
X143078844Y-85300500D01*
X143078845Y-85300499D01*
X143233497Y-85269737D01*
X143379179Y-85209394D01*
X143510289Y-85121789D01*
X143621789Y-85010289D01*
X143709394Y-84879179D01*
X143769737Y-84733497D01*
X143800500Y-84578842D01*
X143800500Y-84421158D01*
X143800500Y-84421155D01*
X143800499Y-84421153D01*
X143769739Y-84266511D01*
X143769738Y-84266508D01*
X143769737Y-84266503D01*
X143763937Y-84252501D01*
X143754500Y-84205053D01*
X143754500Y-82144172D01*
X149275000Y-82144172D01*
X149275000Y-82435827D01*
X149275001Y-82435844D01*
X149313069Y-82725003D01*
X149388562Y-83006744D01*
X149500171Y-83276195D01*
X149500179Y-83276211D01*
X149646006Y-83528788D01*
X149646017Y-83528804D01*
X149821009Y-83756857D01*
X150587423Y-82990443D01*
X150622829Y-83039175D01*
X150750825Y-83167171D01*
X150799555Y-83202575D01*
X150033141Y-83968989D01*
X150261203Y-84143987D01*
X150261211Y-84143993D01*
X150513788Y-84289820D01*
X150513804Y-84289828D01*
X150783255Y-84401437D01*
X151064996Y-84476930D01*
X151354155Y-84514998D01*
X151354173Y-84515000D01*
X151645827Y-84515000D01*
X151645844Y-84514998D01*
X151935003Y-84476930D01*
X152216744Y-84401437D01*
X152486195Y-84289828D01*
X152486211Y-84289820D01*
X152738788Y-84143993D01*
X152738796Y-84143987D01*
X152966857Y-83968989D01*
X152200443Y-83202575D01*
X152249175Y-83167171D01*
X152377171Y-83039175D01*
X152412575Y-82990443D01*
X153178989Y-83756857D01*
X153353987Y-83528796D01*
X153353993Y-83528788D01*
X153499820Y-83276211D01*
X153499828Y-83276195D01*
X153611437Y-83006744D01*
X153686930Y-82725003D01*
X153724998Y-82435844D01*
X153725000Y-82435827D01*
X153725000Y-82144172D01*
X153724998Y-82144155D01*
X153686930Y-81854996D01*
X153611437Y-81573255D01*
X153499828Y-81303804D01*
X153499820Y-81303788D01*
X153353993Y-81051211D01*
X153353987Y-81051203D01*
X153178989Y-80823141D01*
X152412575Y-81589555D01*
X152377171Y-81540825D01*
X152249175Y-81412829D01*
X152200443Y-81377423D01*
X152966857Y-80611009D01*
X152966857Y-80611008D01*
X152738804Y-80436017D01*
X152738788Y-80436006D01*
X152486211Y-80290179D01*
X152486195Y-80290171D01*
X152216744Y-80178562D01*
X151935003Y-80103069D01*
X151645844Y-80065001D01*
X151645827Y-80065000D01*
X151354173Y-80065000D01*
X151354155Y-80065001D01*
X151064996Y-80103069D01*
X150783255Y-80178562D01*
X150513804Y-80290171D01*
X150513788Y-80290179D01*
X150261211Y-80436006D01*
X150261195Y-80436017D01*
X150033141Y-80611008D01*
X150033141Y-80611009D01*
X150799556Y-81377424D01*
X150750825Y-81412829D01*
X150622829Y-81540825D01*
X150587424Y-81589556D01*
X149821009Y-80823141D01*
X149821008Y-80823141D01*
X149646017Y-81051195D01*
X149646006Y-81051211D01*
X149500179Y-81303788D01*
X149500171Y-81303804D01*
X149388562Y-81573255D01*
X149313069Y-81854996D01*
X149275001Y-82144155D01*
X149275000Y-82144172D01*
X143754500Y-82144172D01*
X143754500Y-77113886D01*
X143774185Y-77046847D01*
X143790819Y-77026205D01*
X145006205Y-75810819D01*
X145067528Y-75777334D01*
X145093886Y-75774500D01*
X145500052Y-75774500D01*
X145567091Y-75794185D01*
X145612846Y-75846989D01*
X145616234Y-75855167D01*
X145656202Y-75962328D01*
X145656206Y-75962335D01*
X145742452Y-76077544D01*
X145742455Y-76077547D01*
X145857664Y-76163793D01*
X145857671Y-76163797D01*
X145992517Y-76214091D01*
X145992516Y-76214091D01*
X145999444Y-76214835D01*
X146052127Y-76220500D01*
X146189588Y-76220499D01*
X146256625Y-76240183D01*
X146302380Y-76292987D01*
X146312324Y-76362145D01*
X146283300Y-76425701D01*
X146245882Y-76454983D01*
X146170803Y-76493238D01*
X146094364Y-76548775D01*
X146017927Y-76604310D01*
X146017925Y-76604312D01*
X146017924Y-76604312D01*
X145884312Y-76737924D01*
X145884312Y-76737925D01*
X145884310Y-76737927D01*
X145866052Y-76763057D01*
X145773240Y-76890800D01*
X145687454Y-77059163D01*
X145629059Y-77238881D01*
X145599500Y-77425513D01*
X145599500Y-77614486D01*
X145629059Y-77801118D01*
X145687454Y-77980836D01*
X145773240Y-78149199D01*
X145884310Y-78302073D01*
X146017927Y-78435690D01*
X146170801Y-78546760D01*
X146243396Y-78583749D01*
X146339163Y-78632545D01*
X146339165Y-78632545D01*
X146339168Y-78632547D01*
X146424573Y-78660297D01*
X146518881Y-78690940D01*
X146705514Y-78720500D01*
X146705519Y-78720500D01*
X146894486Y-78720500D01*
X147081118Y-78690940D01*
X147260832Y-78632547D01*
X147429199Y-78546760D01*
X147582073Y-78435690D01*
X147712319Y-78305444D01*
X147773642Y-78271959D01*
X147843334Y-78276943D01*
X147887681Y-78305444D01*
X148017927Y-78435690D01*
X148170801Y-78546760D01*
X148243396Y-78583749D01*
X148339163Y-78632545D01*
X148339165Y-78632545D01*
X148339168Y-78632547D01*
X148424573Y-78660297D01*
X148518881Y-78690940D01*
X148705514Y-78720500D01*
X148705519Y-78720500D01*
X148894486Y-78720500D01*
X149081118Y-78690940D01*
X149260832Y-78632547D01*
X149429199Y-78546760D01*
X149582073Y-78435690D01*
X149715690Y-78302073D01*
X149826760Y-78149199D01*
X149912547Y-77980832D01*
X149970940Y-77801118D01*
X150000500Y-77614486D01*
X150000500Y-77425513D01*
X149970940Y-77238881D01*
X149912545Y-77059163D01*
X149826759Y-76890800D01*
X149715690Y-76737927D01*
X149582073Y-76604310D01*
X149429199Y-76493240D01*
X149429195Y-76493238D01*
X149260836Y-76407454D01*
X149199940Y-76387668D01*
X149142265Y-76348230D01*
X149115067Y-76283871D01*
X149126982Y-76215025D01*
X149174227Y-76163549D01*
X149199942Y-76151805D01*
X149260641Y-76132083D01*
X149428940Y-76046329D01*
X149536239Y-75968373D01*
X149536240Y-75968371D01*
X148994937Y-75427068D01*
X149076306Y-75380090D01*
X149160090Y-75296306D01*
X149207068Y-75214937D01*
X149748371Y-75756240D01*
X149748373Y-75756239D01*
X149826329Y-75648940D01*
X149912085Y-75480637D01*
X149970451Y-75301002D01*
X150000000Y-75114447D01*
X150000000Y-74925552D01*
X149970451Y-74738997D01*
X149912085Y-74559362D01*
X149826333Y-74391066D01*
X149748371Y-74283759D01*
X149748370Y-74283759D01*
X149207067Y-74825061D01*
X149160090Y-74743694D01*
X149076306Y-74659910D01*
X148994935Y-74612930D01*
X149536239Y-74071627D01*
X149428933Y-73993666D01*
X149260637Y-73907914D01*
X149081002Y-73849548D01*
X148894447Y-73820000D01*
X148705553Y-73820000D01*
X148518997Y-73849548D01*
X148339362Y-73907914D01*
X148171060Y-73993669D01*
X148082021Y-74058359D01*
X148016215Y-74081838D01*
X147948161Y-74066012D01*
X147909872Y-74032353D01*
X147857546Y-73962454D01*
X147834709Y-73945358D01*
X147742335Y-73876206D01*
X147742328Y-73876202D01*
X147607482Y-73825908D01*
X147607483Y-73825908D01*
X147547883Y-73819501D01*
X147547881Y-73819500D01*
X147547873Y-73819500D01*
X147547864Y-73819500D01*
X146052129Y-73819500D01*
X146052123Y-73819501D01*
X145992516Y-73825908D01*
X145857671Y-73876202D01*
X145857664Y-73876206D01*
X145742455Y-73962452D01*
X145742452Y-73962455D01*
X145656206Y-74077664D01*
X145656202Y-74077671D01*
X145616234Y-74184833D01*
X145574363Y-74240767D01*
X145508899Y-74265184D01*
X145500052Y-74265500D01*
X144655683Y-74265500D01*
X144509927Y-74294493D01*
X144509919Y-74294495D01*
X144372611Y-74351370D01*
X144284508Y-74410238D01*
X144217830Y-74431115D01*
X144150450Y-74412630D01*
X144127937Y-74394816D01*
X144060813Y-74327692D01*
X144060809Y-74327689D01*
X143929706Y-74240088D01*
X143929693Y-74240081D01*
X143784022Y-74179743D01*
X143784010Y-74179740D01*
X143629366Y-74148979D01*
X143629363Y-74148979D01*
X143471679Y-74148979D01*
X143471674Y-74148979D01*
X143404434Y-74162354D01*
X143334842Y-74156127D01*
X143279665Y-74113264D01*
X143256421Y-74047374D01*
X143265683Y-73993283D01*
X143269737Y-73983497D01*
X143300500Y-73828842D01*
X143300500Y-73671158D01*
X143300500Y-73671155D01*
X143300499Y-73671153D01*
X143269738Y-73516510D01*
X143269738Y-73516508D01*
X143269737Y-73516503D01*
X143269735Y-73516498D01*
X143209397Y-73370827D01*
X143209390Y-73370814D01*
X143121789Y-73239711D01*
X143121786Y-73239707D01*
X143010292Y-73128213D01*
X143010288Y-73128210D01*
X142879185Y-73040609D01*
X142879172Y-73040602D01*
X142733501Y-72980264D01*
X142733489Y-72980261D01*
X142578845Y-72949500D01*
X142578842Y-72949500D01*
X142421158Y-72949500D01*
X142421155Y-72949500D01*
X142266510Y-72980261D01*
X142266498Y-72980264D01*
X142120827Y-73040602D01*
X142120814Y-73040609D01*
X141989711Y-73128210D01*
X141989707Y-73128213D01*
X141878213Y-73239707D01*
X141878210Y-73239711D01*
X141790609Y-73370814D01*
X141790602Y-73370827D01*
X141730264Y-73516498D01*
X141730261Y-73516508D01*
X141716920Y-73583579D01*
X141684535Y-73645490D01*
X141682984Y-73647068D01*
X137244726Y-78085326D01*
X137181643Y-78179739D01*
X137181641Y-78179741D01*
X137173537Y-78191868D01*
X137173534Y-78191874D01*
X137124499Y-78310255D01*
X137124497Y-78310261D01*
X137099500Y-78435928D01*
X137099500Y-82495064D01*
X137079815Y-82562103D01*
X137078603Y-82563954D01*
X137040608Y-82620817D01*
X137040602Y-82620828D01*
X136980264Y-82766498D01*
X136980261Y-82766510D01*
X136949500Y-82921153D01*
X133500000Y-82921153D01*
X133500000Y-70104172D01*
X149275000Y-70104172D01*
X149275000Y-70395827D01*
X149275001Y-70395844D01*
X149313069Y-70685003D01*
X149388562Y-70966744D01*
X149500171Y-71236195D01*
X149500179Y-71236211D01*
X149646006Y-71488788D01*
X149646017Y-71488804D01*
X149821009Y-71716857D01*
X150587423Y-70950443D01*
X150622829Y-70999175D01*
X150750825Y-71127171D01*
X150799555Y-71162575D01*
X150033141Y-71928989D01*
X150261203Y-72103987D01*
X150261211Y-72103993D01*
X150513788Y-72249820D01*
X150513804Y-72249828D01*
X150783255Y-72361437D01*
X151064996Y-72436930D01*
X151354155Y-72474998D01*
X151354173Y-72475000D01*
X151645827Y-72475000D01*
X151645844Y-72474998D01*
X151935003Y-72436930D01*
X152216744Y-72361437D01*
X152486195Y-72249828D01*
X152486211Y-72249820D01*
X152738788Y-72103993D01*
X152738796Y-72103987D01*
X152966857Y-71928989D01*
X152200443Y-71162575D01*
X152249175Y-71127171D01*
X152377171Y-70999175D01*
X152412575Y-70950443D01*
X153178989Y-71716857D01*
X153353987Y-71488796D01*
X153353993Y-71488788D01*
X153499820Y-71236211D01*
X153499828Y-71236195D01*
X153611437Y-70966744D01*
X153686930Y-70685003D01*
X153724998Y-70395844D01*
X153725000Y-70395827D01*
X153725000Y-70104172D01*
X153724998Y-70104155D01*
X153686930Y-69814996D01*
X153611437Y-69533255D01*
X153499828Y-69263804D01*
X153499820Y-69263788D01*
X153353993Y-69011211D01*
X153353987Y-69011203D01*
X153178989Y-68783141D01*
X152412575Y-69549555D01*
X152377171Y-69500825D01*
X152249175Y-69372829D01*
X152200443Y-69337423D01*
X152966857Y-68571009D01*
X152966857Y-68571008D01*
X152738804Y-68396017D01*
X152738788Y-68396006D01*
X152486211Y-68250179D01*
X152486195Y-68250171D01*
X152216744Y-68138562D01*
X151935003Y-68063069D01*
X151645844Y-68025001D01*
X151645827Y-68025000D01*
X151354173Y-68025000D01*
X151354155Y-68025001D01*
X151064996Y-68063069D01*
X150783255Y-68138562D01*
X150513804Y-68250171D01*
X150513788Y-68250179D01*
X150261211Y-68396006D01*
X150261195Y-68396017D01*
X150033141Y-68571008D01*
X150033141Y-68571009D01*
X150799556Y-69337424D01*
X150750825Y-69372829D01*
X150622829Y-69500825D01*
X150587424Y-69549556D01*
X149821009Y-68783141D01*
X149821008Y-68783141D01*
X149646017Y-69011195D01*
X149646006Y-69011211D01*
X149500179Y-69263788D01*
X149500171Y-69263804D01*
X149388562Y-69533255D01*
X149313069Y-69814996D01*
X149275001Y-70104155D01*
X149275000Y-70104172D01*
X133500000Y-70104172D01*
X133500000Y-65624500D01*
X133519685Y-65557461D01*
X133572489Y-65511706D01*
X133624000Y-65500500D01*
X154876000Y-65500500D01*
X154943039Y-65520185D01*
G37*
%TD.AperFunction*%
%TD*%
M02*
